<svg width="140" height="140" viewBox="0 0 140 140" fill="none" xmlns="http://www.w3.org/2000/svg">
<rect width="140" height="140" rx="70" fill="#046E82"/>
<path d="M93.3616 67.3904C93.3239 60.5045 96.4551 55.3073 102.793 51.4798C99.2468 46.4326 93.8897 43.6558 86.8162 43.1117C80.1198 42.5863 72.801 46.9955 70.1225 46.9955C67.293 46.9955 60.8042 43.2993 55.7112 43.2993C45.1857 43.4682 34 51.6486 34 68.291C34 73.2068 34.9054 78.2852 36.7163 83.5262C39.1307 90.412 47.8454 107.298 56.9373 107.017C61.6908 106.904 65.0484 103.658 71.2354 103.658C77.2338 103.658 80.3462 107.017 85.6466 107.017C94.814 106.885 102.699 91.5378 105 84.6331C92.7014 78.8731 93.3616 67.7469 93.3616 67.3904ZM82.6852 36.5823C87.8347 30.5033 87.3632 24.9683 87.2123 22.9795C82.6663 23.2422 77.4036 26.0565 74.4044 29.5276C71.1033 33.2426 69.1605 37.8394 69.5755 43.0179C74.4987 43.3931 78.988 40.8789 82.6852 36.5823Z" fill="white"/>
</svg>
