<svg width="143" height="100" viewBox="0 0 143 100" fill="none" xmlns="http://www.w3.org/2000/svg">
<rect width="143" height="100" rx="50" fill="#046E82"/>
<g clip-path="url(#clip0_910_12118)">
<path d="M65.1955 46.5952C67.6195 50.8537 71.1463 54.3805 75.4048 56.8045L77.6885 53.6063C78.0557 53.0921 78.5987 52.7303 79.2147 52.5894C79.8308 52.4485 80.477 52.5382 81.0313 52.8417C84.685 54.8384 88.7199 56.0393 92.8708 56.3653C93.5186 56.4167 94.1233 56.7103 94.5643 57.1877C95.0052 57.665 95.2501 58.291 95.25 58.9409V70.4678C95.2501 71.1074 95.013 71.7243 94.5844 72.1991C94.1559 72.674 93.5664 72.9729 92.9302 73.0382C91.561 73.1802 90.1815 73.25 88.7917 73.25C66.6783 73.25 48.75 55.3217 48.75 33.2083C48.75 31.8185 48.8198 30.439 48.9618 29.0698C49.0271 28.4336 49.326 27.8441 49.8009 27.4156C50.2757 26.987 50.8926 26.7499 51.5323 26.75H63.0591C63.709 26.7499 64.335 26.9948 64.8123 27.4357C65.2897 27.8767 65.5833 28.4814 65.6347 29.1293C65.9607 33.2801 67.1616 37.315 69.1583 40.9687C69.4618 41.523 69.5515 42.1692 69.4106 42.7853C69.2697 43.4013 68.9079 43.9443 68.3937 44.3115L65.1955 46.5952ZM58.6803 44.8979L63.5887 41.3923C62.1957 38.3856 61.2413 35.1945 60.7547 31.9167H53.9425C53.927 32.3455 53.9192 32.7769 53.9192 33.2083C53.9167 52.4697 69.5303 68.0833 88.7917 68.0833C89.2231 68.0833 89.6545 68.0756 90.0833 68.0575V61.2453C86.8055 60.7587 83.6144 59.8043 80.6077 58.4113L77.1021 63.3197C75.6907 62.7713 74.3198 62.1238 72.9998 61.3822L72.8499 61.2969C67.7829 58.4132 63.5868 54.2171 60.7031 49.1501L60.6178 49.0002C59.8762 47.6801 59.2287 46.3093 58.6803 44.8979Z" fill="white"/>
</g>
<defs>
<clipPath id="clip0_910_12118">
<rect width="62" height="62" fill="white" transform="translate(41 19)"/>
</clipPath>
</defs>
</svg>
