<svg width="100" height="100" viewBox="0 0 100 100" fill="none" xmlns="http://www.w3.org/2000/svg">
<path d="M25.5937 5.72867C37.625 -0.965651 52.4375 -1.84326 65.1211 3.36116C67.9844 4.49593 70.7051 5.98787 73.3223 7.64104C67.9102 7.6492 62.4941 7.70022 57.082 7.61246C54.7246 7.62267 52.3652 7.57777 50.0098 7.63287C46.791 7.75941 43.8223 10.2004 42.9355 13.4312C42.1211 16.5743 41.2734 19.7112 40.5391 22.8767C34.6719 23.1706 28.7891 22.7073 22.9219 22.9849C22.3887 22.9625 21.8574 22.9482 21.3242 22.9441C21.3301 22.0318 21.3848 21.1113 21.2617 20.2051C21.0215 18.503 19.5996 17.0764 17.9629 16.8906C16.0352 16.66 14.0879 16.9008 12.1582 16.6927C15.9766 12.2515 20.5332 8.50232 25.5937 5.72867Z" fill="#00C6BD"/>
<path d="M48.6522 54.7135C50.5605 47.5497 57.1464 42.0085 64.2968 41.8555C62.9081 42.2718 61.6503 43.3535 61.2694 44.8495C60.5683 47.1762 62.2147 49.7437 64.4706 50.154C62.2186 50.3744 60.0429 51.4275 58.4804 53.146C55.6757 56.1768 55.1972 61.1935 57.3827 64.7386C58.8729 67.3204 61.6229 68.9552 64.4706 69.2328C62.3886 69.6246 60.7675 71.8432 61.1718 74.0576C61.3827 75.772 62.7616 77.0639 64.2948 77.5292C59.0507 77.4027 54.0312 74.3862 51.0507 69.9124C48.1034 65.5672 47.2382 59.8179 48.6522 54.7135Z" fill="#8AE1FF"/>
<path d="M22.7051 92.5464C25.6738 92.2525 28.666 92.528 31.6426 92.3668C44.0117 92.3403 56.3809 92.3627 68.75 92.3545C70.1758 92.3729 71.6094 92.2729 73.0293 92.4709C64.293 98.2835 53.6484 100.8 43.3574 99.7775C36.0586 99.0815 28.9414 96.563 22.7051 92.5464Z" fill="#00C6BD"/>
<path d="M42.9355 13.4314C43.8223 10.2005 46.791 7.75957 50.0098 7.63303C52.3652 7.57793 54.7246 7.62283 57.082 7.61262C56.4668 8.26981 55.7422 8.90658 55.4863 9.82297C55.0488 11.2006 55.7246 12.9048 57.0352 13.4518C57.9023 13.8008 58.8477 13.8192 59.7637 13.8477C66.4746 13.8559 73.1855 13.8314 79.8926 13.8559C81.0117 13.7804 81.6602 14.9029 81.8438 15.9111C82.3379 18.2256 83.1074 20.4706 83.5254 22.8034C82.5527 22.8095 81.582 22.8667 80.6133 22.9259L80.4648 22.9157C80.2012 21.6197 79.6992 20.2604 78.5625 19.542C77.3477 18.6623 75.8047 18.9113 74.4141 18.8807C69.6777 18.8562 64.9414 18.9338 60.207 18.8378C57.8516 18.8623 55.4844 18.7276 53.1348 18.9052C51.1523 19.1664 49.9492 21.1278 49.6699 23.0504C46.6289 22.8401 43.5762 23.1545 40.5391 22.8769C41.2734 19.7114 42.1211 16.5744 42.9355 13.4314Z" fill="#2D2D59"/>
<path d="M7.59766 22.9013C8.92773 20.7767 10.377 18.7235 12.0156 16.8438C13.3379 16.9682 14.666 16.9172 15.9922 16.9621C15.2285 17.5622 14.3652 18.1173 13.916 19.0337C13.3086 20.2215 13.4707 21.6135 13.4727 22.9074C11.5137 22.9054 9.55664 22.9135 7.59766 22.9013Z" fill="#2D2D59"/>
<path d="M60.2198 24.5791C63.2491 24.3648 66.3096 24.5464 69.3506 24.4872C70.2198 24.3974 71.0498 25.1995 70.958 26.1241C70.9268 26.971 70.1436 27.6221 69.3506 27.5486C66.4112 27.5323 63.4717 27.5833 60.5342 27.5221C59.0479 27.4466 58.7959 25.0077 60.2198 24.5791Z" fill="#2D2D59"/>
<path d="M57.0821 7.6123C62.4942 7.70007 67.9102 7.64904 73.3223 7.64088C75.6367 7.6919 77.9512 7.61435 80.2656 7.67557C83.4707 7.81436 86.4043 10.288 87.2696 13.5066C88.084 16.6537 88.9063 19.8009 89.6836 22.9582C86.6621 22.9664 83.6211 23.2174 80.6133 22.9256C81.5821 22.8664 82.5528 22.8092 83.5254 22.8031C83.1074 20.4703 82.3379 18.2252 81.8438 15.9108C81.6602 14.9026 81.0117 13.7801 79.8926 13.8556C73.1856 13.8311 66.4746 13.8556 59.7637 13.8474C58.8477 13.8188 57.9024 13.8005 57.0352 13.4515C55.7246 12.9045 55.0488 11.2003 55.4863 9.82265C55.7422 8.90627 56.4668 8.26949 57.0821 7.6123Z" fill="#3B3868"/>
<path d="M12.0156 16.8434C12.0508 16.8067 12.123 16.7312 12.1582 16.6924C14.0879 16.9006 16.0352 16.6597 17.9629 16.8904C19.5996 17.0761 21.0215 18.5027 21.2617 20.2049C21.3848 21.111 21.3301 22.0315 21.3242 22.9438C18.707 22.8785 16.0898 22.9173 13.4727 22.9071C13.4707 21.6131 13.3086 20.2212 13.916 19.0334C14.3652 18.117 15.2285 17.5618 15.9922 16.9618C14.666 16.9169 13.3379 16.9679 12.0156 16.8434Z" fill="#3B3868"/>
<path d="M24.332 23.1848C26.3008 22.8868 28.291 23.0807 30.2715 23.0256C33.4707 22.846 36.4941 25.2319 37.5332 28.3361C38.3106 30.4995 38 32.8446 38.0586 35.0998C38.1016 41.5125 37.9668 47.9293 38.1309 54.3399C37.5645 57.8871 37.5645 61.4995 38.1328 65.0447C37.9707 70.1634 38.0996 75.2882 38.0566 80.4089C38.0098 82.5458 38.2813 84.7582 37.5859 86.8175C36.6074 89.9259 33.6504 92.3689 30.4648 92.2832C28.4414 92.2689 26.4141 92.3689 24.3945 92.2036C27.7188 91.079 30.2754 87.8115 30.2363 84.0908C30.2109 68.1775 30.332 52.2581 30.1758 36.3469C30.2246 34.3712 30.25 32.3895 30.1738 30.4138C29.9551 27.0156 27.4648 24.0318 24.332 23.1848Z" fill="#3B3868"/>
<path d="M1.39453 37.8491C4.68164 41.0452 8.96289 43.1923 13.4688 43.5026C13.4316 57.2463 13.5117 70.9921 13.4297 84.7379C6.03711 76.8558 1.32227 66.2979 0.242188 55.3237C0.203125 54.7543 0.109375 54.1951 0 53.6379V46.3905C0.394531 43.5332 0.667969 40.6452 1.39453 37.8491Z" fill="#3B3868"/>
<path d="M47.5383 48.6437C51.384 41.8146 59.0773 37.6531 66.6379 38.3246C73.2844 38.7798 79.5442 42.9025 82.8449 48.9396C85.3547 53.4093 86.1945 58.8464 85.2121 63.9181C83.5715 73.1881 75.4602 80.6335 66.4387 81.0723C62.4074 81.3417 58.3117 80.3641 54.8234 78.2232C49.3742 74.974 45.5246 68.9634 44.7746 62.4466C44.1672 57.6973 45.1535 52.7399 47.5383 48.6437ZM48.6535 54.7134C47.2395 59.8179 48.1047 65.5672 51.052 69.9124C54.0324 74.3862 59.052 77.4027 64.2961 77.5292C69.9836 77.864 75.718 74.9597 78.9973 70.094C82.6984 64.8162 83.2317 57.3687 80.3274 51.5724C77.4074 45.4251 70.8586 41.4391 64.2981 41.8555C57.1477 42.0085 50.5617 47.5497 48.6535 54.7134Z" fill="#3B3868"/>
<path d="M49.6699 23.0501C49.9492 21.1275 51.1523 19.1662 53.1348 18.9049C55.4844 18.7274 57.8516 18.8621 60.207 18.8376C59.1367 19.7111 58.0352 20.701 57.752 22.1664C56.8711 25.8095 55.7578 29.3975 55.0566 33.0834C51.4395 34.5366 48.2676 36.9347 45.4473 39.6757C46.7891 34.1162 48.2852 28.5974 49.6699 23.0501Z" fill="#D3DCFB"/>
<path d="M7.59766 22.9009C9.55664 22.9131 11.5137 22.905 13.4727 22.907C16.0898 22.9172 18.707 22.8784 21.3242 22.9437C21.8574 22.9478 22.3887 22.9621 22.9219 22.9846L23.1074 23.005C21.9199 23.1315 20.7227 22.9764 19.5371 23.1193C16.1797 23.8969 13.5137 27.1828 13.4805 30.8075C13.4375 35.0384 13.4688 39.2693 13.4688 43.5022C8.96289 43.192 4.68164 41.0449 1.39453 37.8488C2.66016 32.5566 4.76172 27.4828 7.59766 22.9009Z" fill="#D3DCFB"/>
<path d="M60.207 18.8374C64.9414 18.9333 69.6777 18.8558 74.4141 18.8803C75.8047 18.9109 77.3477 18.6619 78.5625 19.5415C79.6992 20.2599 80.2012 21.6192 80.4648 22.9152C81.9063 28.5503 83.3555 34.1833 84.7969 39.8184C79.2988 33.9037 71.3438 30.6321 63.457 31.1525C60.582 31.3199 57.7383 31.9893 55.0566 33.0832C55.7578 29.3973 56.8711 25.8093 57.752 22.1662C58.0352 20.7008 59.1367 19.7109 60.207 18.8374ZM60.2187 24.5786C58.7949 25.0072 59.0469 27.4461 60.5332 27.5216C63.4707 27.5829 66.4102 27.5318 69.3496 27.5482C70.1426 27.6217 70.9258 26.9706 70.957 26.1236C71.0488 25.199 70.2188 24.397 69.3496 24.4868C66.3086 24.5459 63.248 24.3643 60.2187 24.5786Z" fill="#E9EFFF"/>
<path d="M13.4797 30.8079C13.5129 27.1832 16.1789 23.8973 19.5364 23.1197C20.7219 22.9768 21.9192 23.1319 23.1067 23.0054C23.5168 23.0503 23.9231 23.1237 24.3313 23.185C27.4641 24.032 29.9543 27.0158 30.1731 30.414C30.2493 32.3897 30.2239 34.3714 30.175 36.3471C26.0305 41.2474 19.7434 44.0884 13.468 43.5026C13.468 39.2697 13.4368 35.0388 13.4797 30.8079Z" fill="#E9EFFF"/>
<path d="M22.9219 22.9851C28.7891 22.7076 34.6719 23.1708 40.5391 22.877C43.5762 23.1545 46.6289 22.8402 49.6699 23.0504C48.2852 28.5977 46.7891 34.1165 45.4473 39.676C41.7715 43.7416 39.1758 48.846 38.1309 54.3402C37.9668 47.9296 38.1016 41.5129 38.0586 35.1002C38 32.845 38.3105 30.4999 37.5332 28.3365C36.4941 25.2322 33.4707 22.8463 30.2715 23.0259C28.291 23.081 26.3008 22.8872 24.332 23.1851C23.9238 23.1239 23.5176 23.0504 23.1074 23.0055L22.9219 22.9851Z" fill="#47477F"/>
<path d="M80.4649 22.915L80.6133 22.9252C83.6211 23.2171 86.6621 22.9661 89.6836 22.9579C91.5742 22.9803 93.5606 22.7763 95.3242 23.6437C97.8613 24.7621 99.586 27.3684 100 30.1747V85.1028C99.5391 88.8357 96.5156 92.0584 92.877 92.3074C86.2656 92.4951 79.6309 92.1686 73.0293 92.4706C71.6094 92.2727 70.1758 92.3727 68.75 92.3543C56.3809 92.3625 44.0117 92.34 31.6426 92.3665C28.666 92.5278 25.6738 92.2523 22.7051 92.5461C19.3203 90.3542 16.2129 87.7091 13.4297 84.7375C13.5117 70.9917 13.4316 57.2459 13.4687 43.5021C19.7441 44.0879 26.0313 41.2469 30.1758 36.3465C30.332 52.2578 30.2109 68.1772 30.2363 84.0905C30.2754 87.8111 27.7188 91.0787 24.3945 92.2033C26.4141 92.3686 28.4414 92.2686 30.4648 92.2829C33.6504 92.3686 36.6074 89.9256 37.5859 86.8172C38.2813 84.7579 38.0098 82.5455 38.0566 80.4086C38.0996 75.2879 37.9707 70.163 38.1328 65.0443C39.3809 71.4937 42.7051 77.5166 47.5781 81.7087C52.8418 86.2641 59.793 88.8051 66.6387 88.2234C73.1543 87.8622 79.502 84.9559 84.1563 80.1759C89.2031 75.1042 92.2539 67.9262 92.4219 60.6073C92.7305 52.9599 89.836 45.3369 84.7969 39.8182C83.3555 34.1831 81.9063 28.5501 80.4649 22.915ZM89.2442 31.0094C89.0586 33.3504 91.7891 35.0362 93.6895 33.8096C95.543 32.6096 95.543 29.6277 93.6895 28.4276C91.8613 27.2582 89.2227 28.7542 89.2442 31.0094Z" fill="#47477F"/>
<path d="M89.2434 31.0096C89.2219 28.7543 91.8606 27.2583 93.6887 28.4278C91.7258 29.5381 91.7238 32.7015 93.6887 33.8098C91.7883 35.0364 89.0578 33.3506 89.2434 31.0096Z" fill="#FFD748"/>
<path d="M93.6897 33.8097C91.7249 32.7015 91.7268 29.538 93.6897 28.4277C95.5432 29.6278 95.5432 32.6096 93.6897 33.8097Z" fill="#FEC702"/>
<path d="M63.4574 31.1526C71.3441 30.6321 79.2992 33.9038 84.7972 39.8185C89.8363 45.3372 92.7308 52.9601 92.4222 60.6076C92.2543 67.9264 89.2035 75.1044 84.1566 80.1762C79.5023 84.9561 73.1546 87.8624 66.639 88.2237C65.8011 88.2461 64.9515 88.289 64.1273 88.1033C62.6976 87.7257 61.6742 86.2195 61.6956 84.6949C61.6761 83.2295 62.6156 81.762 63.9788 81.3457C64.7816 81.1334 65.6156 81.1375 66.4378 81.0722C75.4593 80.6334 83.5707 73.188 85.2113 63.918C86.1937 58.8462 85.3539 53.4091 82.8441 48.9395C79.5433 42.9023 73.2835 38.7796 66.6371 38.3245C65.3167 38.1816 63.764 38.3816 62.7523 37.2877C60.8695 35.5304 61.6781 32.0608 64.0394 31.2424C63.8441 31.2097 63.6507 31.1791 63.4574 31.1526Z" fill="#8686BF"/>
<path d="M55.0574 33.0836C57.739 31.9896 60.5828 31.3202 63.4578 31.1528C63.6511 31.1794 63.8445 31.21 64.0398 31.2426C61.6785 32.0611 60.8699 35.5307 62.7527 37.2879C63.7644 38.3819 65.3171 38.1819 66.6375 38.3247C59.0769 37.6533 51.3835 41.8148 47.5378 48.6438C45.1531 52.74 44.1668 57.6974 44.7742 62.4467C45.5242 68.9635 49.3738 74.9741 54.823 78.2233C58.3113 80.3642 62.407 81.3418 66.4382 81.0724C65.616 81.1377 64.782 81.1337 63.9793 81.3459C62.616 81.7623 61.6765 83.2297 61.6961 84.6951C61.6746 86.2197 62.698 87.7259 64.1277 88.1035C64.9519 88.2892 65.8015 88.2464 66.6394 88.2239C59.7937 88.8056 52.8425 86.2646 47.5789 81.7092C42.7058 77.5171 39.3816 71.4943 38.1335 65.0448C37.5652 61.4997 37.5652 57.8872 38.1316 54.3401C39.1765 48.8458 41.7722 43.7414 45.448 39.6758C48.2683 36.9348 51.4402 34.5367 55.0574 33.0836Z" fill="#5F5F9B"/>
<path d="M64.2962 41.8555C70.8568 41.4391 77.4056 45.4251 80.3255 51.5724C83.2298 57.3687 82.6966 64.8161 78.9954 70.094C75.7161 74.9597 69.9818 77.8639 64.2943 77.5292C62.761 77.0639 61.3821 75.772 61.1712 74.0576C60.7669 71.8431 62.388 69.6246 64.47 69.2328C68.0853 69.4552 71.7161 67.3285 73.2806 63.8936C74.2435 61.7915 74.5716 59.2648 73.7767 57.0483C74.6771 55.0277 74.1497 52.4113 72.3782 51.1091C71.0306 50.0417 69.179 49.9397 67.6497 50.6213C66.638 50.205 65.5423 50.1662 64.47 50.154C62.2142 49.7437 60.5677 47.1762 61.2689 44.8495C61.6497 43.3535 62.9075 42.2718 64.2962 41.8555Z" fill="#8AE1FF"/>
<path d="M58.4803 53.1458C60.0429 51.4274 62.2186 50.3742 64.4706 50.1538C65.5429 50.1661 66.6386 50.2048 67.6503 50.6212C66.0526 51.507 64.9589 53.3438 65.121 55.2582C65.2284 57.6278 67.2596 59.6769 69.535 59.683C71.2987 59.7687 72.9589 58.6523 73.7772 57.0481C74.5722 59.2646 74.244 61.7913 73.2811 63.8935C71.7167 67.3284 68.0858 69.4551 64.4706 69.2326C61.6229 68.955 58.8729 67.3202 57.3827 64.7384C55.1971 61.1933 55.6757 56.1767 58.4803 53.1458Z" fill="#1AA9E8"/>
<path d="M67.6507 50.6217C69.18 49.94 71.0315 50.0421 72.3792 51.1095C74.1507 52.4116 74.678 55.0281 73.7776 57.0487C72.9593 58.6528 71.2991 59.7692 69.5354 59.6835C67.26 59.6774 65.2288 57.6283 65.1214 55.2587C64.9593 53.3443 66.053 51.5075 67.6507 50.6217Z" fill="#B8F0FF"/>
</svg>
