<svg width="74" height="74" viewBox="0 0 74 74" fill="none" xmlns="http://www.w3.org/2000/svg">
<path d="M74 36.999C74 40.6595 67.442 43.2383 66.3696 46.5413C65.2572 49.9648 69.0086 55.8988 66.9343 58.7473C64.8405 61.6254 58.0241 59.8809 55.146 61.9758C52.2964 64.0491 51.8613 71.081 48.4389 72.1891C45.1359 73.2615 40.6646 67.8628 36.9999 67.8628C33.3352 67.8628 28.868 73.2615 25.5609 72.1891C22.1374 71.0768 21.7023 64.045 18.8528 61.9758C15.9756 59.882 9.15929 61.6265 7.06444 58.7483C4.99116 55.8988 8.74147 49.9648 7.63021 46.5424C6.55803 43.2394 0 40.6605 0 37.0001C0 33.3397 6.55803 30.7608 7.63043 27.4578C8.74169 24.0352 4.99138 18.1012 7.06466 15.2519C9.1595 12.3737 15.9759 14.1182 18.854 12.0244C21.7025 9.95115 22.1376 2.91809 25.5611 1.81111C28.8641 0.738704 33.3354 6.13743 37.0001 6.13743C40.6646 6.13743 45.132 0.738704 48.4391 1.81111C51.8617 2.92236 52.2977 9.95521 55.1462 12.0244C58.0243 14.1193 64.8407 12.3748 66.9356 15.2519C69.0088 18.1015 65.2575 24.0354 66.3698 27.4578C67.442 30.7595 74 33.3384 74 36.999V36.999Z" fill="#F41111"/>
<path d="M33.7686 49.5788C32.6851 49.5803 31.6456 49.1499 30.8802 48.3828L21.7719 39.2745C20.1762 37.6792 20.1758 35.0925 21.7708 33.4968C23.3661 31.9011 25.9529 31.9007 27.5485 33.4957L33.7684 39.7147L46.4585 27.0257C48.054 25.43 50.6409 25.4298 52.2366 27.0253C53.8323 28.6207 53.8325 31.2077 52.2371 32.8034L36.6577 48.3828C35.8923 49.1501 34.8523 49.5805 33.7686 49.5788V49.5788Z" fill="white"/>
</svg>
