<svg width="575" height="790" viewBox="0 0 575 790" fill="none" xmlns="http://www.w3.org/2000/svg">
<path d="M370.98 125.348C370.242 122.091 367.544 119.077 367.514 115.891C395.374 136.698 424.327 156.695 452.581 177.229C460.019 182.924 468.578 187.567 475.177 194.102C448.347 205.593 421.79 217.761 395.051 229.485C390.069 231.69 385.087 233.885 380.075 236.009C379.549 236.242 378.508 236.707 377.993 236.94C375.224 238.073 372.546 239.398 369.828 240.622C369.302 240.844 368.262 241.299 367.746 241.522C365.402 242.554 363.057 243.595 360.693 244.587C358.479 245.75 356.135 246.61 353.851 247.621C354.852 245.173 356.428 243.059 357.984 240.945C359.874 237.82 362.006 234.866 363.987 231.801C366.038 228.787 367.958 225.681 370.04 222.697C370.717 221.686 371.414 220.684 372.102 219.683C374.517 215.829 377.094 212.076 379.65 208.303C363.36 211.834 347.96 218.601 333.246 226.309C322.767 232.094 312.631 238.477 303.001 245.588C299.929 247.905 296.836 250.191 293.865 252.618C273.28 269.329 254.434 288.254 238.215 309.243C234.031 314.878 229.827 320.532 226.169 326.51C225.492 327.532 224.805 328.543 224.097 329.545C223.097 331.224 222.117 332.923 221.106 334.602C220.197 336.029 219.327 337.495 218.61 339.033C218.085 339.953 217.569 340.884 217.074 341.835C216.447 343.18 215.72 344.485 214.911 345.749C214.426 346.821 213.931 347.904 213.476 348.996C213.224 349.502 212.719 350.514 212.466 351.019C211.627 353.002 210.768 354.974 209.919 356.957C205.493 368.792 201.764 382.356 206.867 394.596C207.13 395.122 207.666 396.164 207.939 396.68C214.77 407.24 227.604 411.225 239.336 413.319C256.92 415.716 274.645 417.072 292.238 419.469C275.312 422.858 258.506 426.975 241.479 429.827C224.198 431.739 205.544 431.668 189.86 423.121C180.704 418.387 173.54 410.133 169.882 400.513C169.417 399.249 168.962 397.974 168.487 396.73C167.658 393.645 167.062 390.519 166.82 387.343C166.072 382.387 166.092 377.258 166.86 372.312C167.082 369.631 167.133 366.92 167.82 364.301C175.834 329.413 195.772 298.45 218.994 271.716C233.708 255.39 249.947 240.44 267.642 227.401C270.117 225.499 272.725 223.77 275.17 221.817C292.885 207.403 312.742 195.629 333.59 186.374C335.904 185.261 338.238 184.189 340.623 183.218C343.978 181.842 347.353 180.487 350.769 179.242C354.003 177.958 357.358 177.007 360.622 175.783C363.643 174.741 366.746 173.891 369.757 172.809C372.142 172.182 374.577 171.666 376.871 170.756C378.195 170.432 379.64 170.392 380.873 169.724C382.227 169.431 383.652 169.309 384.936 168.733C385.592 168.621 386.916 168.409 387.583 168.298C383.885 158.314 379.741 148.502 376.113 138.498C375.345 136.829 374.638 135.13 374.092 133.38C372.93 130.75 372.102 127.988 370.98 125.348Z" fill="white"/>
<path d="M334.388 360.973C350.698 358.909 367.847 359.415 383.167 365.97C383.683 366.202 384.703 366.657 385.208 366.89C386.088 367.406 386.967 367.922 387.856 368.428C402.549 376.297 410.634 393.331 410.108 409.657C410.785 426.277 404.803 442.188 398.174 457.128C378.286 500.371 344.756 536.027 306.649 563.884C301.646 567.273 297.099 571.238 292.218 574.789C289.985 576.346 287.752 577.904 285.488 579.411C282.103 581.697 278.677 583.933 275.17 586.027C274.331 586.492 273.493 586.967 272.664 587.473C271.815 587.999 270.956 588.525 270.107 589.061C268.309 589.891 266.591 590.902 264.923 591.964C258.324 595.585 251.564 598.873 244.763 602.09C226.3 610.313 207.12 617.02 187.354 621.309C193.427 637.847 200.056 654.193 205.968 670.792C206.281 671.247 206.888 672.138 207.201 672.593C203.523 671.723 201.117 668.537 197.884 666.807C192.972 662.923 187.768 659.413 182.736 655.68C181.371 654.679 180.007 653.687 178.623 652.726C172.64 648.266 166.527 643.977 160.514 639.546C141.657 625.759 122.79 611.982 103.893 598.256C102.509 597.163 100.548 596.435 100.164 594.513C103.226 593.461 106.106 591.964 109.128 590.801C112.119 589.324 115.262 588.181 118.303 586.816C120.617 585.683 123.033 584.803 125.407 583.811C127.893 582.304 130.844 581.819 133.239 580.16C133.542 580.139 134.149 580.089 134.452 580.069C136.331 578.946 138.383 578.177 140.364 577.267C148.185 574.101 155.865 570.57 163.636 567.283C183.19 558.928 202.563 550.148 222.218 542.025C220.146 545.04 218.125 548.084 216.063 551.119C209.343 561.194 202.249 571.036 195.853 581.323C198.237 580.635 200.764 580.372 203.068 579.401C203.624 579.29 204.735 579.057 205.291 578.946C210.556 576.943 216.104 575.699 221.207 573.261C224.36 572.219 227.392 570.823 230.383 569.387C267.268 552.555 298.716 525.78 325.798 495.94C337.298 482.952 347.687 468.943 356.489 453.992C356.751 453.517 357.287 452.586 357.55 452.111C358.045 451.251 358.56 450.391 359.076 449.542C360.268 447.013 361.612 444.565 362.916 442.097C363.866 439.72 364.876 437.363 366.099 435.117C366.726 433.408 367.372 431.709 368.019 430.019C368.555 427.936 369.292 425.912 370 423.889C370.262 422.534 370.505 421.179 371.02 419.894C371.253 418.468 371.485 417.062 371.708 415.635C374.719 403.143 368.888 388.608 356.681 383.499C355.367 382.751 354.023 382.053 352.618 381.517C351.355 381.021 350.082 380.525 348.829 380.04C347.778 379.736 346.737 379.433 345.716 379.13C344.332 378.867 342.978 378.533 341.674 378.047C339.906 377.804 338.117 377.683 336.338 377.643C337.086 377.39 337.834 377.127 338.582 376.884C335.833 376.975 333.074 376.813 330.346 376.469C327.314 375.427 324.04 375.781 320.887 375.599L320.766 374.932C317.664 374.78 314.46 375.023 311.479 374.011C305.436 373.374 299.171 372.888 293.299 372.636C294.936 372.383 296.614 372.413 298.261 372.19C294.633 371.877 290.995 371.756 287.357 371.573C287.378 371.169 287.428 370.35 287.458 369.935C289.308 369.793 291.288 369.945 292.996 369.035C294.684 368.772 296.462 368.782 298.029 368.013C299.726 367.78 301.485 367.73 303.081 367.022C304.779 366.769 306.497 366.597 308.144 366.081C309.842 365.798 311.56 365.605 313.207 365.069C314.885 364.796 316.592 364.584 318.23 364.038C319.917 363.775 321.635 363.572 323.262 363.026C326.981 362.399 330.69 361.731 334.388 360.973Z" fill="white"/>
<path d="M340.634 161.024C349.638 158.728 358.703 155.896 368.04 155.582C359.239 159.366 350.396 163.078 341.746 167.195C338.967 168.358 336.218 169.572 333.47 170.786C332.5 171.291 331.529 171.787 330.559 172.293C296.16 188.012 261.893 206.057 234.891 233.085C203.291 262.339 176.754 297.752 160.96 338.031C159.818 340.681 158.747 343.372 157.847 346.133C157.402 347.428 156.988 348.743 156.564 350.048C156.2 351.07 155.796 352.081 155.331 353.072C155.119 354.337 155.149 355.601 155.432 356.855C154.937 355.945 154.098 354.923 153.087 355.864L154.472 356.299C153.744 358.868 153.451 361.599 152.42 364.098C150.531 374.739 148.843 385.724 150.713 396.487C151.844 399.087 150.703 404.276 153.148 405.216C153.239 406.835 153.674 408.382 154.229 409.91C155.088 411.488 155.978 413.046 156.806 414.644C161.899 423.788 170.449 430.646 179.938 434.824C184.424 436.837 189.194 438.061 193.924 439.365C196.389 439.639 198.885 439.679 201.351 440.084C192.943 441.034 184.313 441.014 175.956 439.851C173.895 439.588 171.783 439.588 169.802 438.91C152.532 436.179 135.585 424.617 131.593 406.774C125.308 379.655 135.777 352.293 146.256 327.612C149.328 321.199 152.319 314.725 155.866 308.555C190.245 247.055 246.078 197.611 311.329 171.099C313.218 170.189 315.179 169.42 317.16 168.712C319.595 167.872 322 166.942 324.446 166.112C325.749 165.667 327.083 165.243 328.407 164.838C329.417 164.504 330.438 164.16 331.449 163.806C332.479 163.482 333.52 163.139 334.551 162.805C336.572 162.178 338.583 161.55 340.634 161.024Z" fill="white" fill-opacity="0.2"/>
<path d="M380.612 351.707C398.236 350.989 417.163 352.567 432.331 362.439C444.316 370.157 450.663 384.541 450.501 398.54C451.259 415.635 446.297 432.325 440.315 448.145C439.557 450.219 438.617 452.212 437.808 454.275C436.535 457.33 435.12 460.314 433.817 463.359C431.482 468.426 428.986 473.423 426.268 478.309C425.985 478.805 425.419 479.786 425.136 480.282C385.432 550.502 317.554 604.547 239.974 626.781C229.252 629.724 218.369 632.293 207.283 633.376C245.613 616.696 285.236 601.563 319.464 577.074C364.544 542.844 402.935 497.771 422.62 444.13C423.358 442.127 423.863 440.043 424.692 438.071C424.823 437.524 425.076 436.422 425.207 435.866C426.844 431.698 427.521 427.237 428.673 422.928C430.219 413.288 430.977 403.193 429.279 393.574C427.299 380.181 418.911 368.002 407.31 361.094C399.256 355.935 389.909 353.426 380.612 351.707Z" fill="white" fill-opacity="0.2"/>
</svg>
