<svg width="65" height="64" viewBox="0 0 65 64" fill="none" xmlns="http://www.w3.org/2000/svg">
<g clip-path="url(#clip0_78_4376)">
<path d="M11.222 21.334H53.8887V56.0007C53.8887 56.7079 53.6077 57.3862 53.1076 57.8863C52.6075 58.3864 51.9292 58.6673 51.222 58.6673H13.8887C13.1814 58.6673 12.5032 58.3864 12.0031 57.8863C11.503 57.3862 11.222 56.7079 11.222 56.0007V21.334ZM19.222 13.334V8.00065C19.222 7.29341 19.503 6.61513 20.0031 6.11503C20.5032 5.61494 21.1814 5.33398 21.8887 5.33398H43.222C43.9292 5.33398 44.6075 5.61494 45.1076 6.11503C45.6077 6.61513 45.8887 7.29341 45.8887 8.00065V13.334H59.222V18.6673H5.88867V13.334H19.222ZM24.5553 10.6673V13.334H40.5553V10.6673H24.5553ZM24.5553 32.0007V48.0007H29.8887V32.0007H24.5553ZM35.222 32.0007V48.0007H40.5553V32.0007H35.222Z" fill="#012239"/>
</g>
<defs>
<clipPath id="clip0_78_4376">
<rect width="64" height="64" fill="white" transform="translate(0.554688)"/>
</clipPath>
</defs>
</svg>
