<svg width="152" height="152" viewBox="0 0 152 152" fill="none" xmlns="http://www.w3.org/2000/svg">
<path d="M137.75 30.6138H104.643L101.412 14.5113C100.918 12.096 99.6067 9.92492 97.6991 8.36333C95.7914 6.80175 93.404 5.94507 90.9388 5.9375H61.0612C58.596 5.94507 56.2086 6.80175 54.3009 8.36333C52.3933 9.92492 51.0819 12.096 50.5875 14.5113L47.3575 30.6138H14.25C13.3052 30.6138 12.399 30.9891 11.7309 31.6572C11.0628 32.3253 10.6875 33.2314 10.6875 34.1763C10.6875 35.1211 11.0628 36.0272 11.7309 36.6953C12.399 37.3634 13.3052 37.7388 14.25 37.7388H137.75C138.686 37.7251 139.579 37.3437 140.236 36.6771C140.893 36.0105 141.261 35.1122 141.261 34.1763C141.261 33.2403 140.893 32.342 140.236 31.6754C139.579 31.0088 138.686 30.6274 137.75 30.6138ZM54.625 30.6138L57.57 15.9362C57.7327 15.1288 58.1688 14.4021 58.8047 13.8787C59.4406 13.3552 60.2376 13.067 61.0612 13.0625H90.9388C91.759 13.0663 92.553 13.3514 93.1884 13.87C93.8238 14.3887 94.262 15.1097 94.43 15.9125L97.375 30.6138H54.625ZM30.0675 129.936C30.4721 134.352 32.515 138.456 35.7942 141.441C39.0733 144.425 43.351 146.074 47.785 146.062H104.215C108.649 146.074 112.927 144.425 116.206 141.441C119.485 138.456 121.528 134.352 121.933 129.936L130.008 44.8637H21.9925L30.0675 129.936ZM93.8125 71.25C93.8258 70.3139 94.2069 69.4206 94.8736 68.7633C95.5403 68.1061 96.4389 67.7376 97.3751 67.7376C98.3113 67.7376 99.2099 68.1061 99.8765 68.7635C100.543 69.4208 100.924 70.3141 100.938 71.2502V118.75C100.924 119.686 100.543 120.579 99.8764 121.237C99.2097 121.894 98.3111 122.262 97.3749 122.262C96.4387 122.262 95.5401 121.894 94.8735 121.237C94.2069 120.579 93.8257 119.686 93.8125 118.75V71.25ZM72.4375 71.25C72.4508 70.3139 72.8319 69.4206 73.4986 68.7633C74.1653 68.1061 75.0639 67.7376 76.0001 67.7376C76.9363 67.7376 77.8349 68.1061 78.5015 68.7635C79.1681 69.4208 79.5493 70.3141 79.5625 71.2502V118.75C79.5492 119.686 79.1681 120.579 78.5014 121.237C77.8347 121.894 76.9361 122.262 75.9999 122.262C75.0637 122.262 74.1651 121.894 73.4985 121.237C72.8319 120.579 72.4507 119.686 72.4375 118.75V71.25ZM51.0625 71.25C51.0758 70.3139 51.4569 69.4206 52.1236 68.7633C52.7903 68.1061 53.6889 67.7376 54.6251 67.7376C55.5613 67.7376 56.4599 68.1061 57.1265 68.7635C57.7931 69.4208 58.1743 70.3141 58.1875 71.2502V118.75C58.1742 119.686 57.7931 120.579 57.1264 121.237C56.4597 121.894 55.5611 122.262 54.6249 122.262C53.6887 122.262 52.7901 121.894 52.1235 121.237C51.4569 120.579 51.0757 119.686 51.0625 118.75V71.25Z" fill="#F41111"/>
</svg>
