<svg width="50" height="33" viewBox="0 0 50 33" fill="none" xmlns="http://www.w3.org/2000/svg">
<path d="M6.91169 0.40729C4.84814 0.373323 2.78096 0.403651 0.716206 0.392732V22.9571C17.4732 22.9643 20.887 22.9425 37.6441 22.968C36.0403 24.6554 34.3213 26.2386 32.7369 27.9418C34.1903 29.3636 35.5769 30.8861 37.0909 32.2266C41.2264 28.1129 45.3547 23.9894 49.4648 19.8502C45.3353 15.7098 41.2252 11.539 37.0423 7.45803C35.6096 8.87983 34.1733 10.3004 32.7636 11.744C34.2691 13.4679 36.0609 15.0389 37.6453 16.7349C22.9603 16.7507 21.6173 16.7591 6.93231 16.73C6.91047 8.45887 6.95172 8.67724 6.91169 0.40729Z" fill="#012239"/>
</svg>
