<svg width="140" height="140" viewBox="0 0 140 140" fill="none" xmlns="http://www.w3.org/2000/svg">
<rect x="1.5" y="1.5" width="137" height="137" rx="68.5" fill="#046E82" stroke="#046E82" stroke-width="3"/>
<path d="M70.5 130C103.361 130 130 103.361 130 70.5C130 37.6391 103.361 11 70.5 11C37.6391 11 11 37.6391 11 70.5C11 103.361 37.6391 130 70.5 130Z" fill="#046E82"/>
<path d="M76.666 29.2632C68.8441 29.2632 60.144 32.5529 60.144 43.8911C60.1822 47.8417 60.144 51.6253 60.144 55.8834H51.0952V70.2828H60.424V111.736H77.5663V70.0092H88.8808L89.9045 55.843H77.2709C77.2709 55.843 77.2992 49.5412 77.2709 47.7112C77.2709 43.2306 81.9331 43.4872 82.2135 43.4872C84.4321 43.4872 88.7458 43.4937 89.8532 43.4872V29.2632H76.666Z" fill="white"/>
</svg>
