<svg width="54" height="54" viewBox="0 0 54 54" fill="none" xmlns="http://www.w3.org/2000/svg">
<path d="M11.3505 43.0013C11.9014 41.4399 12.9231 40.0878 14.2747 39.1314C15.6264 38.1751 17.2414 37.6615 18.8971 37.6615C20.5529 37.6615 22.1679 38.1751 23.5195 39.1314C24.8712 40.0878 25.8929 41.4399 26.4438 43.0013H53.5638V48.3347H26.4438C25.8929 49.8961 24.8712 51.2482 23.5195 52.2046C22.1679 53.1609 20.5529 53.6745 18.8971 53.6745C17.2414 53.6745 15.6264 53.1609 14.2747 52.2046C12.9231 51.2482 11.9014 49.8961 11.3505 48.3347H0.230469V43.0013H11.3505ZM27.3505 24.3347C27.9014 22.7732 28.9231 21.4211 30.2747 20.4648C31.6264 19.5084 33.2414 18.9948 34.8971 18.9948C36.5529 18.9948 38.1679 19.5084 39.5195 20.4648C40.8712 21.4211 41.8929 22.7732 42.4438 24.3347H53.5638V29.668H42.4438C41.8929 31.2294 40.8712 32.5815 39.5195 33.5379C38.1679 34.4943 36.5529 35.0079 34.8971 35.0079C33.2414 35.0079 31.6264 34.4943 30.2747 33.5379C28.9231 32.5815 27.9014 31.2294 27.3505 29.668H0.230469V24.3347H27.3505ZM11.3505 5.66799C11.9014 4.10657 12.9231 2.75448 14.2747 1.7981C15.6264 0.841714 17.2414 0.328125 18.8971 0.328125C20.5529 0.328125 22.1679 0.841714 23.5195 1.7981C24.8712 2.75448 25.8929 4.10657 26.4438 5.66799H53.5638V11.0013H26.4438C25.8929 12.5627 24.8712 13.9148 23.5195 14.8712C22.1679 15.8276 20.5529 16.3412 18.8971 16.3412C17.2414 16.3412 15.6264 15.8276 14.2747 14.8712C12.9231 13.9148 11.9014 12.5627 11.3505 11.0013H0.230469V5.66799H11.3505ZM18.8971 11.0013C19.6044 11.0013 20.2827 10.7204 20.7828 10.2203C21.2829 9.72018 21.5638 9.0419 21.5638 8.33466C21.5638 7.62742 21.2829 6.94914 20.7828 6.44904C20.2827 5.94895 19.6044 5.66799 18.8971 5.66799C18.1899 5.66799 17.5116 5.94895 17.0115 6.44904C16.5114 6.94914 16.2305 7.62742 16.2305 8.33466C16.2305 9.0419 16.5114 9.72018 17.0115 10.2203C17.5116 10.7204 18.1899 11.0013 18.8971 11.0013ZM34.8971 29.668C35.6044 29.668 36.2827 29.387 36.7828 28.8869C37.2829 28.3868 37.5638 27.7086 37.5638 27.0013C37.5638 26.2941 37.2829 25.6158 36.7828 25.1157C36.2827 24.6156 35.6044 24.3347 34.8971 24.3347C34.1899 24.3347 33.5116 24.6156 33.0115 25.1157C32.5114 25.6158 32.2305 26.2941 32.2305 27.0013C32.2305 27.7086 32.5114 28.3868 33.0115 28.8869C33.5116 29.387 34.1899 29.668 34.8971 29.668ZM18.8971 48.3347C19.6044 48.3347 20.2827 48.0537 20.7828 47.5536C21.2829 47.0535 21.5638 46.3752 21.5638 45.668C21.5638 44.9608 21.2829 44.2825 20.7828 43.7824C20.2827 43.2823 19.6044 43.0013 18.8971 43.0013C18.1899 43.0013 17.5116 43.2823 17.0115 43.7824C16.5114 44.2825 16.2305 44.9608 16.2305 45.668C16.2305 46.3752 16.5114 47.0535 17.0115 47.5536C17.5116 48.0537 18.1899 48.3347 18.8971 48.3347Z" fill="black"/>
</svg>
