<svg width="56" height="56" viewBox="0 0 56 56" fill="none" xmlns="http://www.w3.org/2000/svg">
<g clip-path="url(#clip0_17_5407)">
<path d="M11.6667 25.9L16.3333 21.2333L29.1667 34.0667L37.3333 25.9L44.3333 32.9V11.6667H11.6667V25.9ZM9.33333 7H46.6667C47.2855 7 47.879 7.24583 48.3166 7.68342C48.7542 8.121 49 8.71449 49 9.33333V46.6667C49 47.2855 48.7542 47.879 48.3166 48.3166C47.879 48.7542 47.2855 49 46.6667 49H9.33333C8.71449 49 8.121 48.7542 7.68342 48.3166C7.24583 47.879 7 47.2855 7 46.6667V9.33333C7 8.71449 7.24583 8.121 7.68342 7.68342C8.121 7.24583 8.71449 7 9.33333 7ZM36.1667 23.3333C35.2384 23.3333 34.3482 22.9646 33.6918 22.3082C33.0354 21.6518 32.6667 20.7616 32.6667 19.8333C32.6667 18.9051 33.0354 18.0148 33.6918 17.3585C34.3482 16.7021 35.2384 16.3333 36.1667 16.3333C37.0949 16.3333 37.9852 16.7021 38.6415 17.3585C39.2979 18.0148 39.6667 18.9051 39.6667 19.8333C39.6667 20.7616 39.2979 21.6518 38.6415 22.3082C37.9852 22.9646 37.0949 23.3333 36.1667 23.3333Z" fill="white"/>
</g>
<defs>
<clipPath id="clip0_17_5407">
<rect width="56" height="56" fill="white"/>
</clipPath>
</defs>
</svg>
