<svg width="140" height="140" viewBox="0 0 140 140" fill="none" xmlns="http://www.w3.org/2000/svg">
<rect width="140" height="140" rx="70" fill="#046E82"/>
<path d="M106.883 70.5955C106.883 68.0499 106.637 65.4223 106.226 62.9588H70.6703V77.4932H91.0348C90.2137 82.1737 87.5039 86.2795 83.4802 88.9072L95.6333 98.3504C102.777 91.6991 106.883 82.0095 106.883 70.5955Z" fill="white"/>
<path d="M70.6703 107.383C80.8525 107.383 89.3925 104.016 95.6333 98.2683L83.4802 88.9072C80.1135 91.2064 75.7614 92.5202 70.6703 92.5202C60.8165 92.5202 52.5229 85.8689 49.4846 77.0005L37.0031 86.6079C43.4081 99.3358 56.3823 107.383 70.6703 107.383Z" fill="white"/>
<path d="M49.4846 76.9184C47.9244 72.2378 47.9244 67.1467 49.4846 62.4661L37.0031 52.7765C31.6656 63.4515 31.6656 76.0151 37.0031 86.6079L49.4846 76.9184Z" fill="white"/>
<path d="M70.6703 46.9464C76.0078 46.8643 81.2631 48.9171 85.1225 52.6123L95.8796 41.7731C89.064 35.3681 80.0314 31.9193 70.6703 32.0014C56.3823 32.0014 43.4081 40.0487 37.0031 52.7765L49.4846 62.4661C52.5229 53.5156 60.8165 46.9464 70.6703 46.9464Z" fill="white"/>
</svg>
