<svg width="66" height="65" viewBox="0 0 66 65" fill="none" xmlns="http://www.w3.org/2000/svg">
<g clip-path="url(#clip0_44_1849)">
<path d="M51.9587 59.5837H14.042C11.8871 59.5837 9.82048 58.7276 8.29675 57.2039C6.77302 55.6802 5.91699 53.6135 5.91699 51.4587V8.12533C5.91699 7.40703 6.20233 6.71816 6.71024 6.21024C7.21816 5.70233 7.90703 5.41699 8.62533 5.41699H46.542C47.2603 5.41699 47.9492 5.70233 48.4571 6.21024C48.965 6.71816 49.2503 7.40703 49.2503 8.12533V40.6253H60.0837V51.4587C60.0837 53.6135 59.2276 55.6802 57.7039 57.2039C56.1802 58.7276 54.1135 59.5837 51.9587 59.5837ZM49.2503 46.042V51.4587C49.2503 52.177 49.5357 52.8658 50.0436 53.3737C50.5515 53.8817 51.2404 54.167 51.9587 54.167C52.677 54.167 53.3658 53.8817 53.8737 53.3737C54.3817 52.8658 54.667 52.177 54.667 51.4587V46.042H49.2503ZM16.7503 18.9587V24.3753H38.417V18.9587H16.7503ZM16.7503 29.792V35.2087H38.417V29.792H16.7503ZM16.7503 40.6253V46.042H30.292V40.6253H16.7503Z" fill="#046E82"/>
</g>
<defs>
<clipPath id="clip0_44_1849">
<rect width="65" height="65" fill="white" transform="translate(0.5)"/>
</clipPath>
</defs>
</svg>
