<svg width="100" height="100" viewBox="0 0 100 100" fill="none" xmlns="http://www.w3.org/2000/svg">
<path opacity="0.66" d="M43.9473 0.197469C44.373 -0.0247752 44.8555 -0.0512814 45.3125 0.0771714C44.9023 0.3667 44.4004 0.387089 43.9473 0.197469Z" fill="#892F53"/>
<path d="M45.3123 0.0770429C57.9704 -0.675324 70.7866 4.11413 80.1186 13.0691C74.0874 13.7114 68.0581 14.3985 62.025 15.0122C49.2888 12.3331 36.5604 9.57847 23.8496 6.76678C29.955 3.03146 36.8885 0.758047 43.9471 0.19734C44.4002 0.386961 44.9021 0.366571 45.3123 0.0770429Z" fill="#00C6BD"/>
<path d="M60.9807 25.9202C61.2873 25.8937 61.5959 25.8876 61.9065 25.8876C68.6779 25.7367 74.8692 31.6924 75.2696 38.7492C75.4962 41.6608 74.8302 44.6335 73.3849 47.1353C72.3907 48.8888 70.9259 50.2549 69.5744 51.6964C67.674 51.5516 65.5158 52.1021 63.8635 50.8319C62.6194 49.9694 62.0041 48.4484 61.8576 46.9416C65.5334 46.9314 68.8849 43.5019 68.588 39.5994C68.5744 35.6276 64.8713 32.4958 61.1623 32.8505C59.9104 32.455 58.8049 31.4172 58.6174 30.0164C58.2581 28.2344 59.4436 26.5665 60.9807 25.9202Z" fill="#FF4155"/>
<path d="M14.6191 85.9569C17.6894 85.6531 20.7538 85.2678 23.8261 84.9844C36.5701 87.6411 49.275 90.5282 62.0229 93.1646C65.9506 92.8078 69.8647 92.2715 73.7963 91.9514C67.2631 96.4819 59.5679 99.1652 51.7555 99.7972C51.3023 99.6096 50.8004 99.63 50.3903 99.9196C48.6383 99.9665 46.8864 99.9665 45.1344 99.9135C44.777 99.6545 44.3317 99.6198 43.9333 99.7911C33.0135 98.9388 22.4687 93.9088 14.6191 85.9569Z" fill="#00C6BD"/>
<path d="M14.6835 13.954C17.4218 11.2443 20.4413 8.83018 23.7127 6.86465C23.8221 8.93213 23.7362 11.0037 23.7713 13.0712C20.7401 13.3362 17.7265 13.846 14.6835 13.954Z" fill="#C4FFF0"/>
<path d="M16.3339 79.5392C18.83 79.2476 21.3319 78.9989 23.828 78.7114C23.8241 80.787 23.828 82.8647 23.828 84.9403C20.7557 85.2237 17.6913 85.6091 14.621 85.9129C12.8789 84.1716 11.293 82.2734 9.80078 80.2977C11.9707 79.9796 14.1621 79.841 16.3339 79.5392Z" fill="#C4FFF0"/>
<path d="M23.7713 6.81243L23.8494 6.76758C36.5602 9.57927 49.2886 12.3339 62.0248 15.013C61.7807 17.1009 61.9311 19.2091 61.9252 21.3072L61.7846 21.2929C53.5757 19.5415 45.3746 17.7391 37.1813 15.9081C34.697 15.3291 32.2029 14.7887 29.7087 14.2627C27.74 13.8937 25.7947 13.4125 23.8299 13.0189C23.7947 10.9515 23.8807 8.87991 23.7713 6.81243Z" fill="#C4FFF0"/>
<path d="M23.826 78.7562C36.4099 81.4435 49.0035 84.086 61.5796 86.8161C61.6635 86.8243 61.8315 86.8406 61.9155 86.8487C61.9409 88.9529 61.7788 91.0693 62.0229 93.1653C49.275 90.529 36.57 87.6419 23.826 84.9851C23.826 82.9095 23.8221 80.8318 23.826 78.7562Z" fill="#C4FFF0"/>
<path d="M80.1184 13.07C85.7062 12.4807 91.2902 11.8466 96.878 11.2737C98.3545 11.1248 99.6572 12.3298 99.999 13.7816V86.7815C99.7178 88.0558 98.7471 89.1874 97.46 89.3322C89.5792 90.266 81.6731 90.9898 73.7962 91.9522C69.8646 92.2723 65.9506 92.8085 62.0229 93.1653C61.7788 91.0693 61.9409 88.9529 61.9155 86.8487C69.4955 86.1168 77.0716 85.3032 84.6457 84.4877C87.8058 84.2675 90.9484 83.8393 94.1007 83.5518C94.1495 82.0899 94.1397 80.6239 94.1085 79.162C94.0733 67.7317 94.0733 56.2994 94.1085 44.8671C94.1436 42.1472 94.1397 39.4232 94.1124 36.7012C94.0538 30.3968 94.1065 24.0924 94.0851 17.7881C92.0128 17.9634 89.9542 18.2774 87.88 18.4303C85.2648 18.7076 82.6496 18.989 80.0403 19.3132C74.0052 20.0146 67.9701 20.7363 61.9252 21.3072C61.9311 19.2091 61.7807 17.1009 62.0248 15.013C68.058 14.3993 74.0872 13.7122 80.1184 13.07Z" fill="#C4FFF0"/>
<path d="M14.7421 13.9014C17.785 13.7933 20.7986 13.2836 23.8299 13.0186C23.8709 17.3554 23.6775 21.7024 23.9334 26.029C23.0681 28.0924 22.16 30.1354 21.1775 32.1397C17.2538 32.6718 13.3046 33.0123 9.37297 33.4854C7.05269 33.6831 4.74802 34.1439 2.41406 34.1011C4.88669 26.4653 9.11907 19.433 14.7421 13.9014Z" fill="#88CE65"/>
<path d="M80.0402 19.3121C82.6495 18.9879 85.2647 18.7066 87.88 18.4293C87.8956 24.7234 87.876 31.0176 87.8897 37.3118C85.0636 37.2241 82.9972 40.6781 84.3741 43.2716C84.878 44.442 86.0284 45.021 87.0167 45.6613C82.4699 46.1221 77.9347 46.7235 73.384 47.1354C74.8293 44.6336 75.4953 41.6609 75.2688 38.7493C76.8566 38.4964 78.4621 38.421 80.048 38.1519C80.0812 31.874 80.091 25.592 80.0402 19.3121Z" fill="#6FAF46"/>
<path d="M42.6343 35.9193C44.6577 36.3781 46.6831 36.8328 48.7143 37.2528C48.1811 40.0889 48.5502 43.078 49.6811 45.7103C47.4409 45.4758 45.2885 44.7214 43.0522 44.4604C41.4819 44.283 39.9742 43.2554 39.4136 41.6773C38.9976 40.3214 39.1324 38.6841 40.0679 37.5913C40.7398 36.7736 41.7124 36.3455 42.6343 35.9193Z" fill="#6FAF46"/>
<path d="M27.8904 57.5014C29.2556 55.5991 31.9098 55.4972 33.7126 56.7633C43.0484 60.3702 52.4663 63.7752 61.8607 67.2169C69.3645 70.0266 76.8879 72.7832 84.3976 75.5725C82.6417 75.7009 80.8312 76.7326 80.3586 78.6146C79.8176 80.3375 80.6027 82.1154 81.8097 83.2939C75.2121 80.8839 68.6263 78.4331 62.0404 75.9884C50.8745 71.8249 39.691 67.7144 28.5193 63.5713C26.7693 62.142 26.4353 59.2773 27.8904 57.5014Z" fill="#6FAF46"/>
<path d="M87.8897 37.3118C89.9678 37.1385 92.0303 36.8061 94.1123 36.7001C94.1397 39.4221 94.1436 42.1461 94.1084 44.866C91.7374 45.0699 89.3799 45.388 87.0167 45.6613C86.0284 45.021 84.878 44.442 84.3741 43.2716C82.9972 40.6781 85.0636 37.2241 87.8897 37.3118Z" fill="#6FAF46"/>
<path d="M84.3976 75.5725C87.628 76.7857 90.8605 77.9987 94.1085 79.1609C94.1397 80.6228 94.1495 82.0888 94.1007 83.5507C90.9484 83.8382 87.8058 84.2664 84.6457 84.4866C83.7355 83.9993 82.7765 83.6344 81.8097 83.2939C80.6027 82.1154 79.8176 80.3375 80.3586 78.6146C80.8312 76.7326 82.6417 75.7009 84.3976 75.5725Z" fill="#6FAF46"/>
<path d="M29.1872 14.3392C29.3181 14.3188 29.5778 14.2801 29.7087 14.2617C32.2028 14.7878 34.6969 15.3281 37.1813 15.9071C34.6246 21.6141 32.0212 27.2987 29.5173 33.0301C33.8844 34.0108 38.2652 34.9345 42.6343 35.9193C41.7124 36.3455 40.7398 36.7736 40.0679 37.5913C39.1324 38.6841 38.9976 40.3214 39.4136 41.6773C39.9742 43.2554 41.4819 44.283 43.0522 44.4604C40.0152 48.6219 36.8121 52.6508 33.7126 56.7633C31.9098 55.4972 29.2556 55.5991 27.8904 57.5014C26.4353 59.2773 26.7693 62.142 28.5193 63.5713C26.9177 65.6041 25.365 67.6777 23.783 69.7288C21.3064 73.0197 18.6971 76.2065 16.3319 79.583C14.16 79.8848 11.9686 80.0234 9.79873 80.3415C9.10538 79.4586 8.48234 78.5187 7.87883 77.5685C8.60148 76.3248 9.54287 75.2482 10.3983 74.1064C14.9002 68.1976 19.4549 62.3316 23.9294 56.4024C27.4509 51.7638 31.0329 47.1742 34.5289 42.5152C30.9587 41.7588 27.404 40.9106 23.822 40.2112C22.5017 40.1358 21.197 40.409 19.8885 40.5313C13.4081 41.2246 6.93548 41.9953 0.453125 42.6559C0.859371 39.7504 1.51757 36.8837 2.41404 34.1005C4.748 34.1434 7.05267 33.6826 9.37295 33.4848C13.3046 33.0117 17.2537 32.6712 21.1775 32.1391C22.1599 30.1348 23.0681 28.0918 23.9333 26.0284C25.7146 22.1463 27.447 18.2397 29.1872 14.3392Z" fill="#6FAF46"/>
<path d="M19.8885 40.5313C21.197 40.409 22.5017 40.1358 23.822 40.2112C23.8826 45.6062 23.6736 51.0155 23.9294 56.4024C19.4549 62.3316 14.9002 68.1976 10.3983 74.1064C9.54287 75.2482 8.60147 76.3248 7.87883 77.5685C3.35348 70.5138 0.783195 62.2317 0 53.8109V46.2179C0.249997 45.0455 0.265622 43.8385 0.45312 42.6559C6.93548 41.9953 13.4081 41.2246 19.8885 40.5313Z" fill="#88CE65"/>
<path d="M16.334 79.5832C18.6992 76.2067 21.3085 73.0198 23.7851 69.729C23.8612 72.7364 23.7909 75.7459 23.828 78.7554C21.332 79.0428 18.8301 79.2916 16.334 79.5832Z" fill="#6FAF46"/>
<path d="M23.8306 13.0186C25.7954 13.4121 27.7407 13.8933 29.7095 14.2623C29.5786 14.2807 29.3188 14.3194 29.188 14.3398C27.4478 18.2403 25.7154 22.1469 23.9341 26.029C23.6783 21.7024 23.8716 17.3554 23.8306 13.0186Z" fill="#88CE65"/>
<path d="M37.1816 15.9082C45.3748 17.7392 53.5759 19.5416 61.7848 21.293C61.9977 22.8161 61.8864 24.3575 61.9059 25.8888C61.5954 25.8888 61.2868 25.8949 60.9801 25.9214C55.0466 26.2089 49.742 31.1655 48.7146 37.2538C46.6834 36.8338 44.658 36.3791 42.6346 35.9203C38.2655 34.9355 33.8847 34.0119 29.5176 33.0312C32.0215 27.2997 34.6249 21.6152 37.1816 15.9082Z" fill="#88CE65"/>
<path d="M23.8223 40.2114C27.4043 40.9108 30.959 41.759 34.5292 42.5154C31.0332 47.1744 27.4512 51.764 23.9297 56.4026C23.6739 51.0157 23.8829 45.6064 23.8223 40.2114Z" fill="#88CE65"/>
<path d="M43.0526 44.4604C45.2889 44.7214 47.4413 45.4758 49.6815 45.7103C50.367 47.2538 51.3162 48.6668 52.4744 49.8636C54.949 52.4449 57.4216 55.0262 59.8943 57.6095C60.4255 58.1906 61.1618 58.4863 61.9099 58.6086C61.8786 61.4774 61.9567 64.3482 61.861 67.217C52.4666 63.7753 43.0487 60.3703 33.7129 56.7634C36.8125 52.6508 40.0156 48.6219 43.0526 44.4604Z" fill="#88CE65"/>
<path d="M23.7832 69.7294C25.3652 67.6782 26.9179 65.6046 28.5195 63.5718C39.6912 67.7149 50.8747 71.8254 62.0406 75.9889C61.7438 78.7292 61.9723 81.4981 61.9117 84.2527C61.8375 85.0948 62.1637 86.1203 61.5797 86.8156C49.0037 84.0855 36.41 81.443 23.8262 78.7557C23.7891 75.7462 23.8594 72.7368 23.7832 69.7294Z" fill="#88CE65"/>
<path d="M87.8789 18.4294C89.9531 18.2765 92.0117 17.9625 94.0839 17.7871C94.1054 24.0915 94.0527 30.3959 94.1113 36.7003C92.0293 36.8063 89.9668 37.1386 87.8887 37.3119C87.875 31.0177 87.8945 24.7236 87.8789 18.4294Z" fill="#B4D667"/>
<path d="M61.9258 21.3066C67.9706 20.7357 74.0057 20.0139 80.0408 19.3125C80.0916 25.5924 80.0818 31.8744 80.0486 38.1522C78.4627 38.4214 76.8573 38.4968 75.2694 38.7497C74.869 31.6929 68.6777 25.7372 61.9062 25.8881C61.8867 24.3568 61.998 22.8154 61.7852 21.2923L61.9258 21.3066Z" fill="#B4D667"/>
<path d="M87.0173 45.6614C89.3806 45.3882 91.738 45.0701 94.109 44.8662C94.0739 56.2985 94.0739 67.7308 94.109 79.1611C90.861 77.9989 87.6286 76.7857 84.3982 75.5725C76.8885 72.7833 69.3652 70.0266 61.8613 67.217C61.957 64.3482 61.8789 61.4774 61.9102 58.6086C62.707 58.4822 63.4785 58.1397 64.0332 57.5117C65.875 55.5665 67.748 53.656 69.5741 51.6966C70.9257 50.2551 72.3905 48.889 73.3846 47.1355C77.9354 46.7237 82.4705 46.1222 87.0173 45.6614Z" fill="#B4D667"/>
<path d="M61.9101 84.2526C61.9707 81.498 61.7422 78.7291 62.0391 75.9888C68.6249 78.4335 75.2108 80.8842 81.8084 83.2943C82.7752 83.6348 83.7341 83.9997 84.6443 84.487C77.0702 85.3026 69.4941 86.1162 61.9141 86.8481C61.8301 86.84 61.6621 86.8237 61.5781 86.8155C62.1621 86.1202 61.8359 85.0946 61.9101 84.2526Z" fill="#B4D667"/>
<path d="M48.7147 37.2533C49.742 31.165 55.0466 26.2084 60.9802 25.9209C59.4431 26.5672 58.2575 28.2351 58.6169 30.0171C58.8044 31.4179 59.9099 32.4557 61.1618 32.8512C59.2165 33.2427 57.279 34.305 56.2595 36.1421C54.5877 38.809 54.9451 42.7237 57.2556 44.8707C58.4275 46.2226 60.1638 46.7873 61.8571 46.9423C62.0036 48.4491 62.6188 49.9701 63.863 50.8326C65.5153 52.1028 67.6735 51.5523 69.5738 51.6971C67.7477 53.6565 65.8746 55.567 64.0329 57.5121C63.4782 58.1401 62.7067 58.4827 61.9098 58.6091C61.1618 58.4867 60.4255 58.1911 59.8942 57.61C57.4216 55.0267 54.949 52.4454 52.4744 49.8641C51.3162 48.6672 50.367 47.2543 49.6815 45.7108C48.5506 43.0785 48.1815 40.0894 48.7147 37.2533Z" fill="#E80054"/>
<path d="M56.2591 36.1415C57.2787 34.3044 59.2161 33.2422 61.1614 32.8507C64.8704 32.4959 68.5735 35.6277 68.5871 39.5995C68.884 43.5021 65.5325 46.9316 61.8567 46.9417C60.1634 46.7868 58.4271 46.222 57.2552 44.8702C54.9447 42.7232 54.5873 38.8084 56.2591 36.1415Z" fill="#CC0053"/>
<path opacity="0.59" d="M43.9336 99.7916C44.332 99.6203 44.7773 99.655 45.1348 99.9139C44.7324 100.059 44.2969 100.024 43.9336 99.7916Z" fill="#7A2A4A"/>
<path opacity="0.65" d="M50.3906 99.9199C50.8008 99.6304 51.3027 99.61 51.7558 99.7976C51.3301 100.022 50.8477 100.048 50.3906 99.9199Z" fill="#862F53"/>
</svg>
