<svg width="135" height="139" viewBox="0 0 135 139" fill="none" xmlns="http://www.w3.org/2000/svg">
<path d="M0.209574 0H0.744399C24.5183 3.30125 48.3302 6.37717 72.1231 9.56711C72.1611 49.516 72.1149 89.465 72.1448 129.414C72.1611 132.609 72.1475 135.805 72.1529 139H72.0851C48.132 135.791 24.1844 132.533 0.217719 129.452C0.193285 86.2995 0.212289 43.1497 0.209574 0ZM19.4524 14.367C19.4171 17.565 19.4442 20.7658 19.4388 23.9639C30.6213 25.5603 41.8064 27.1349 52.9834 28.7583C52.9726 25.563 52.9834 22.3676 52.978 19.1722C41.8037 17.5542 30.624 15.9877 19.4524 14.367ZM56.1082 62.5066C52.9563 63.2097 50.5102 66.2558 50.5944 69.5C50.5129 72.7442 52.959 75.7903 56.1136 76.4907C60.4275 77.6771 65.1106 73.9659 64.9505 69.5C65.1188 65.0287 60.4275 61.3147 56.1082 62.5066Z" fill="#36AFAD"/>
<path d="M0.745117 0H91.3259C91.3259 11.1852 91.3259 22.3703 91.3259 33.5555C88.1414 33.5582 84.9596 33.55 81.7778 33.5609C81.6909 39.9354 81.7615 46.3125 81.7425 52.687C84.9351 52.7277 88.1305 52.6734 91.3259 52.7141C91.3205 78.2825 91.334 103.851 91.3204 129.417C84.9297 129.408 78.539 129.417 72.1455 129.414C72.1156 89.465 72.1618 49.516 72.1238 9.56711C48.3309 6.37717 24.519 3.30125 0.745117 0Z" fill="#046E82"/>
<path d="M19.453 14.3672C30.6246 15.9879 41.8043 17.5544 52.9786 19.1725C52.9841 22.3678 52.9732 25.5632 52.9841 28.7586C41.8071 27.1351 30.6219 25.5605 19.4395 23.9642C19.4449 20.7661 19.4177 17.5653 19.453 14.3672Z" fill="white"/>
<path d="M110.497 33.5529C110.497 31.1557 110.497 28.7585 110.5 26.3613C118.487 31.9566 126.482 37.5383 134.461 43.1418C126.474 48.7316 118.492 54.3324 110.497 59.9087C110.497 57.5142 110.5 55.1197 110.497 52.7225C104.106 52.717 97.7158 52.7333 91.325 52.7143C88.1296 52.6736 84.9343 52.7279 81.7416 52.6872C81.7606 46.3127 81.69 39.9355 81.7769 33.5611C84.9587 33.5502 88.1405 33.5584 91.325 33.5557C97.7158 33.5529 104.106 33.5584 110.497 33.5529Z" fill="#F41111"/>
<path d="M56.1087 62.5065C60.428 61.3147 65.1193 65.0286 64.951 69.4999C65.1112 73.9658 60.428 77.677 56.1142 76.4906C52.9595 75.7902 50.5134 72.7442 50.5949 69.4999C50.5107 66.2557 52.9568 63.2096 56.1087 62.5065Z" fill="#FCF05A"/>
</svg>
