<svg width="100" height="100" viewBox="0 0 100 100" fill="none" xmlns="http://www.w3.org/2000/svg">
<path d="M37.7734 3.21668C45.4902 1.55652 53.623 1.82996 61.2031 4.0409C72.9629 7.41395 83.2715 15.5233 89.3242 26.1542C88.9785 26.0409 88.6289 25.9393 88.2793 25.8475C84.1465 24.7636 79.5957 25.5292 76.0117 27.8475C75.9453 24.0292 76.0332 20.2089 75.9707 16.3925C75.9473 15.2929 74.9238 14.3788 73.834 14.4237C67.5332 14.3983 61.2305 14.4257 54.9297 14.412C52.9238 12.5721 50.9238 10.7264 48.9395 8.86316C48.1465 8.03309 46.709 7.93152 45.8652 8.74207C43.7734 10.6132 41.7422 12.5526 39.6445 14.4159C35.8105 14.3964 31.9766 14.4491 28.1426 14.3846C25.6641 14.3925 23.1816 14.3456 20.7031 14.4022C19.5352 14.3905 18.5859 15.4569 18.6035 16.5975C18.5742 22.3124 18.6016 28.0272 18.5898 33.7421C15.4609 36.6132 12.3301 39.4823 9.20117 42.3534C9.14648 54.2675 9.20703 66.1835 9.17188 78.0975C3.5293 70.5507 0.427734 61.2343 0 51.8456V48.162C0.404297 38.9335 3.44336 29.8221 8.83594 22.3085C15.6602 12.6386 26.1914 5.67176 37.7734 3.21668Z" fill="#00C6BD"/>
<path d="M88.3262 55.9726C91.1055 55.248 93.668 53.748 95.668 51.6875C95.3477 61.7266 91.7286 71.6133 85.5156 79.5019C85.3965 71.8183 85.4805 64.1289 85.4727 56.4414C86.4375 56.3926 87.3926 56.2187 88.3262 55.9726Z" fill="#00C6BD"/>
<path d="M19.9473 88.793C38.5645 88.7891 57.1875 88.711 75.8027 88.8321C71.2637 92.1133 66.1387 94.586 60.7422 96.088C46.9883 99.9747 31.4414 97.3516 19.9473 88.793Z" fill="#00C6BD"/>
<path d="M45.8652 8.74208C46.709 7.93154 48.1465 8.0331 48.9395 8.86318C50.9238 10.7265 52.9238 12.5722 54.9297 14.412C49.834 14.4101 44.7383 14.414 39.6445 14.4159C41.7422 12.5526 43.7734 10.6132 45.8652 8.74208Z" fill="#FAC600"/>
<path d="M9.20117 42.3535C12.3301 39.4824 15.4609 36.6133 18.5898 33.7422C18.5996 35.8262 18.5957 37.9102 18.5938 39.9941C17.5938 40.7422 16.4785 41.5 15.916 42.6484C15.6504 44.1172 15.9512 45.6231 15.7695 47.1016C13.4238 45.7656 11.4414 43.8633 9.20117 42.3535Z" fill="#FAC600"/>
<path d="M44.7598 56.1071C45.4941 55.4528 46.2012 54.5465 47.2734 54.5231C48.4082 54.484 49.1445 55.4626 49.9258 56.1266C50.459 56.6129 50.9824 57.111 51.5059 57.611C47.0898 61.9098 42.4414 65.9587 37.9375 70.1637C32.5176 75.0954 27.1582 80.0876 21.7324 85.0133C20.5137 86.2301 19.1172 87.2594 18 88.5797C18.6191 88.6169 19.2344 88.7028 19.8496 88.7907C16.9453 88.7887 14.0391 88.8688 11.1328 88.8102C10.5859 88.8004 10.0879 88.5407 9.68164 88.1891C11.8418 86.4665 13.7617 84.4626 15.8477 82.6501C22.834 76.1813 29.8867 69.7848 36.8848 63.3258C39.5117 60.9235 42.1348 58.5153 44.7598 56.1071Z" fill="#FAC600"/>
<path d="M18.6035 16.5978C18.5859 15.4571 19.5352 14.3907 20.7031 14.4024C23.1816 14.3458 25.6641 14.3927 28.1426 14.3849C27.4609 15.1681 26.8105 16.086 26.9375 17.1856C26.9707 26.9532 26.9492 36.7189 26.9492 46.4845C26.9785 47.67 26.748 49.0157 27.5059 50.0333C28.5273 51.295 30.1484 51.881 31.1465 53.17C30.5703 53.2032 29.4746 53.0118 29.5098 53.8985C29.543 54.6251 29.1309 56.1271 30.2656 56.1075C35.0957 56.1368 39.9277 56.0919 44.7598 56.1075C42.1348 58.5157 39.5117 60.9239 36.8848 63.3263C30.7793 58.7169 24.6563 54.129 18.582 49.4786C18.6133 46.3165 18.5918 43.1564 18.5937 39.9943C18.5957 37.9103 18.5996 35.8263 18.5898 33.7423C18.6016 28.0274 18.5742 22.3126 18.6035 16.5978Z" fill="#DCF5F8"/>
<path d="M28.1429 14.3848C31.9769 14.4492 35.8109 14.3965 39.6449 14.416C44.7386 14.4141 49.8343 14.4102 54.93 14.4121C61.2308 14.4258 67.5336 14.3984 73.8343 14.4238C74.9242 14.3789 75.9476 15.293 75.9711 16.3926C76.0336 20.209 75.9457 24.0293 76.0121 27.8477C73.1957 29.7129 70.9574 32.4668 69.8304 35.6602C67.8304 41.0801 69.1918 47.543 73.2367 51.6738C68.0316 55.5195 62.9359 59.5156 57.7132 63.334C55.6586 61.4121 53.557 59.5391 51.5062 57.6113C50.9828 57.1113 50.4593 56.6133 49.9261 56.127C54.9554 56.0469 59.9965 56.2559 65.0179 56.0215C65.0668 55.1309 65.6781 53.166 64.2718 53.1953C53.2308 53.1699 42.1879 53.2227 31.1468 53.1699C30.1488 51.8809 28.5277 51.2949 27.5062 50.0332C26.7484 49.0156 26.9789 47.6699 26.9496 46.4844C26.9496 36.7188 26.9711 26.9531 26.9379 17.1855C26.8109 16.0859 27.4613 15.168 28.1429 14.3848ZM36.2074 26.4609C35.5922 26.6641 35.8324 27.4434 35.7699 27.9316C35.7621 28.4844 35.6781 29.4531 36.5199 29.3359C43.7465 29.3555 50.9769 29.3555 58.2054 29.3359C58.9847 29.3945 58.8636 28.4453 58.8793 27.9316C58.8558 27.3965 59.0218 26.4004 58.2152 26.4316C50.8812 26.4277 43.5375 26.3691 36.2074 26.4609ZM29.7328 36.7305C29.4027 37.5508 29.0277 39.6758 30.4554 39.5566C41.7914 39.5449 53.1293 39.5703 64.4632 39.543C65.2621 39.5957 65.1449 38.6191 65.1527 38.0859C65.1351 37.5488 65.2777 36.5645 64.4574 36.6348C53.1937 36.6074 41.9281 36.6406 30.6625 36.6191C30.3519 36.6328 30.0257 36.6074 29.7328 36.7305ZM29.7484 45.0137C29.3382 45.877 29.055 48.1719 30.6625 47.8496C41.93 47.8301 53.1976 47.8633 64.4652 47.834C65.305 47.8574 65.1273 46.8477 65.1527 46.2891C65.1507 45.7813 65.2269 44.832 64.4613 44.9199C53.1957 44.9004 41.93 44.9258 30.6644 44.9082C30.3597 44.9238 30.0355 44.8926 29.7484 45.0137Z" fill="#EAF9FA"/>
<path d="M76.0108 27.8475C79.5948 25.5291 84.1456 24.7635 88.2784 25.8475C86.2354 26.5604 84.2139 27.4334 82.5401 28.8338C77.5108 32.7772 75.4249 40.0057 77.6241 46.0155C79.2452 50.8631 83.4327 54.6092 88.3253 55.9725C87.3917 56.2186 86.4366 56.3924 85.4718 56.4412C80.9483 56.7557 76.3507 54.9666 73.2354 51.6737C69.1905 47.5428 67.8292 41.0799 69.8292 35.66C70.9561 32.4666 73.1944 29.7127 76.0108 27.8475Z" fill="#E80054"/>
<path d="M88.2789 25.8477C88.6285 25.9395 88.9781 26.041 89.3238 26.1543C95.2066 28.0273 99.5445 33.6504 99.9996 39.791V41.6992C99.7847 45.4062 98.2418 49.0078 95.6675 51.6875C93.6675 53.748 91.105 55.248 88.3257 55.9727C83.4332 54.6094 79.2457 50.8633 77.6246 46.0156C75.4254 40.0059 77.5113 32.7773 82.5406 28.834C84.2144 27.4336 86.2359 26.5605 88.2789 25.8477ZM80.2359 32.8125C80.2379 33.8262 80.0894 34.8906 80.3355 35.875C80.9371 36.3281 81.816 36.0273 82.5308 36.1641C82.5015 40.125 82.5308 44.0879 82.5113 48.0488C82.5328 48.4609 82.4468 49.1406 83.0347 49.1504C84.1402 49.1797 85.2789 49.2969 86.3648 49.0293L86.3531 49.1816C87.0093 49.1914 88.2476 49.4453 88.2457 48.4453C88.2652 43.6895 88.275 38.9297 88.2398 34.1738C88.2457 32.6719 86.5933 31.8945 85.275 32.2383L85.4195 32.375C84.1187 32.0645 82.7672 32.2695 81.4449 32.2051C80.9937 32.2129 80.1714 32.1309 80.2359 32.8125Z" fill="#FF4155"/>
<path d="M36.207 26.461C43.5371 26.3692 50.8808 26.4278 58.2148 26.4317C59.0215 26.4004 58.8554 27.3965 58.8789 27.9317C58.8633 28.4453 58.9843 29.3946 58.2051 29.336C50.9765 29.3555 43.7461 29.3555 36.5195 29.336C35.6777 29.4532 35.7617 28.4844 35.7695 27.9317C35.832 27.4434 35.5918 26.6641 36.207 26.461Z" fill="#00C6BD"/>
<path d="M29.7323 36.7305C30.0252 36.6074 30.3514 36.6328 30.662 36.6191C41.9276 36.6406 53.1932 36.6074 64.4569 36.6348C65.2772 36.5645 65.1346 37.5488 65.1522 38.0859C65.1444 38.6191 65.2616 39.5957 64.4627 39.543C53.1288 39.5703 41.7909 39.5449 30.4549 39.5566C29.0272 39.6758 29.4022 37.5508 29.7323 36.7305Z" fill="#00C6BD"/>
<path d="M29.7487 45.0137C30.0358 44.8926 30.36 44.9238 30.6647 44.9082C41.9303 44.9258 53.1959 44.9004 64.4616 44.9199C65.2272 44.832 65.151 45.7813 65.153 46.2891C65.1276 46.8477 65.3053 47.8574 64.4655 47.834C53.1979 47.8633 41.9303 47.8301 30.6627 47.8496C29.0553 48.1719 29.3385 45.877 29.7487 45.0137Z" fill="#00C6BD"/>
<path d="M29.5093 53.8984C29.4742 53.0117 30.5699 53.2031 31.1461 53.1699C42.1871 53.2227 53.23 53.1699 64.2711 53.1953C65.6773 53.166 65.066 55.1309 65.0172 56.0215C59.9957 56.2559 54.9547 56.0469 49.9254 56.127C49.1441 55.4629 48.4078 54.4844 47.273 54.5234C46.2007 54.5469 45.4937 55.4531 44.7593 56.1074C39.9273 56.0918 35.0953 56.1367 30.2652 56.1074C29.1304 56.127 29.5425 54.625 29.5093 53.8984Z" fill="#00C6BD"/>
<path d="M80.236 32.8125C80.1715 32.1308 80.9938 32.2128 81.4449 32.205C82.7672 32.2695 84.1188 32.0644 85.4195 32.375C86.0328 32.8574 86.5055 33.5527 86.4332 34.3671C86.3922 39.2539 86.5211 44.1445 86.3649 49.0292C85.2789 49.2968 84.1403 49.1796 83.0348 49.1503C82.4469 49.1406 82.5328 48.4609 82.5113 48.0488C82.5309 44.0878 82.5016 40.1249 82.5309 36.164C81.816 36.0273 80.9371 36.3281 80.3356 35.8749C80.0895 34.8906 80.2379 33.8261 80.236 32.8125Z" fill="#FEE97D"/>
<path d="M85.2754 32.2383C86.5937 31.8945 88.2461 32.6718 88.2402 34.1738C88.2754 38.9297 88.2656 43.6894 88.2461 48.4453C88.248 49.4453 87.0098 49.1914 86.3535 49.1816L86.3652 49.0293C86.5215 44.1445 86.3926 39.2539 86.4336 34.3672C86.5059 33.5527 86.0332 32.8574 85.4199 32.375L85.2754 32.2383Z" fill="#E80054"/>
<path d="M15.916 42.6484C16.4785 41.5 17.5937 40.7422 18.5937 39.9941C18.5918 43.1563 18.6133 46.3164 18.582 49.4785C17.6738 48.8066 16.7832 48.1094 15.8457 47.4805C15.8047 59.2031 15.8027 70.9277 15.8477 82.6504C13.7617 84.4629 11.8418 86.4668 9.68164 88.1895C9.41602 87.8203 9.1543 87.4063 9.18164 86.9316C9.16992 83.9863 9.19336 81.043 9.17188 78.0977C9.20703 66.1836 9.14648 54.2676 9.20117 42.3535C11.4414 43.8633 13.4238 45.7656 15.7695 47.1016C15.9512 45.623 15.6504 44.1172 15.916 42.6484Z" fill="#FEC702"/>
<path d="M51.5059 57.6113C53.5566 59.5391 55.6582 61.4121 57.7129 63.334C65.4531 70.4101 73.1895 77.4902 80.8965 84.5996C79.3027 86.1289 77.5977 87.543 75.8027 88.832C57.1875 88.7109 38.5645 88.7891 19.9473 88.793L19.8496 88.791C19.2344 88.7031 18.6191 88.6172 18 88.5801C19.1172 87.2598 20.5137 86.2305 21.7324 85.0137C27.1582 80.0879 32.5176 75.0957 37.9375 70.1641C42.4414 65.959 47.0898 61.9102 51.5059 57.6113Z" fill="#FEC702"/>
<path d="M15.8457 47.4805C16.7832 48.1094 17.6738 48.8066 18.582 49.4785C24.6563 54.1289 30.7793 58.7168 36.8848 63.3262C29.8867 69.7852 22.834 76.1816 15.8477 82.6504C15.8027 70.9277 15.8047 59.2031 15.8457 47.4805Z" fill="#FFD748"/>
<path d="M57.7129 63.334C62.9355 59.5156 68.0313 55.5195 73.2363 51.6738C76.3516 54.9668 80.9492 56.7559 85.4727 56.4414C85.4805 64.1289 85.3965 71.8184 85.5156 79.5019C84.1094 81.3164 82.5508 83.0098 80.8965 84.5996C73.1895 77.4902 65.4531 70.4102 57.7129 63.334Z" fill="#FFD748"/>
</svg>
