<svg width="67" height="74" viewBox="0 0 67 74" fill="none" xmlns="http://www.w3.org/2000/svg">
<path d="M52.1111 51.8H59.5556V7.39999H22.3333V14.8H52.1111V51.8ZM52.1111 59.1999V70.2999C52.1111 72.3423 50.4361 73.9999 48.3628 73.9999H3.74828C3.25742 74.0029 2.77081 73.9093 2.31642 73.7248C1.86203 73.5402 1.44881 73.2682 1.10051 72.9243C0.752201 72.5805 0.475674 72.1717 0.286813 71.7213C0.0979525 71.2709 0.00048156 70.7879 0 70.2999L0.0111667 18.5C0.0111667 16.4576 1.68617 14.8 3.75945 14.8H14.8889V3.7C14.8889 2.7187 15.2811 1.77759 15.9791 1.0837C16.6772 0.38982 17.6239 0 18.6111 0H63.2778C64.265 0 65.2117 0.38982 65.9098 1.0837C66.6078 1.77759 67 2.7187 67 3.7V55.5C67 56.4813 66.6078 57.4224 65.9098 58.1162C65.2117 58.8101 64.265 59.1999 63.2778 59.1999H52.1111ZM14.8889 51.8V59.1999H22.3333V62.8999H29.7778V59.1999H31.6389C34.1069 59.1999 36.4738 58.2254 38.2189 56.4907C39.964 54.756 40.9444 52.4032 40.9444 49.95C40.9444 47.4967 39.964 45.1439 38.2189 43.4092C36.4738 41.6745 34.1069 40.7 31.6389 40.7H20.4722C19.9786 40.7 19.5052 40.5051 19.1562 40.1581C18.8072 39.8112 18.6111 39.3406 18.6111 38.85C18.6111 38.3593 18.8072 37.8888 19.1562 37.5418C19.5052 37.1949 19.9786 37 20.4722 37H37.2222V29.6H29.7778V25.9H22.3333V29.6H20.4722C18.0042 29.6 15.6373 30.5745 13.8922 32.3092C12.1471 34.0439 11.1667 36.3967 11.1667 38.85C11.1667 41.3032 12.1471 43.656 13.8922 45.3907C15.6373 47.1254 18.0042 48.1 20.4722 48.1H31.6389C32.1325 48.1 32.6059 48.2949 32.9549 48.6418C33.3039 48.9888 33.5 49.4593 33.5 49.95C33.5 50.4406 33.3039 50.9112 32.9549 51.2581C32.6059 51.605 32.1325 51.8 31.6389 51.8H14.8889Z" fill="white"/>
</svg>
