<svg width="48" height="63" viewBox="0 0 48 63" fill="none" xmlns="http://www.w3.org/2000/svg">
<path d="M47.3334 62.166H0.666748V56.3327C0.666748 52.4649 2.2032 48.7556 4.93811 46.0207C7.67301 43.2858 11.3823 41.7494 15.2501 41.7494H32.7501C36.6178 41.7494 40.3271 43.2858 43.0621 46.0207C45.797 48.7556 47.3334 52.4649 47.3334 56.3327V62.166ZM24.0001 35.916C21.7019 35.916 19.4263 35.4634 17.3031 34.5839C15.1799 33.7044 13.2507 32.4154 11.6257 30.7904C10.0007 29.1654 8.71165 27.2362 7.83219 25.113C6.95273 22.9898 6.50008 20.7141 6.50008 18.416C6.50008 16.1179 6.95273 13.8423 7.83219 11.7191C8.71165 9.59586 10.0007 7.66667 11.6257 6.04165C13.2507 4.41662 15.1799 3.12758 17.3031 2.24812C19.4263 1.36867 21.7019 0.916016 24.0001 0.916016C28.6414 0.916016 33.0926 2.75976 36.3745 6.04165C39.6563 9.32353 41.5001 13.7747 41.5001 18.416C41.5001 23.0573 39.6563 27.5085 36.3745 30.7904C33.0926 34.0723 28.6414 35.916 24.0001 35.916V35.916Z" fill="#1D2125"/>
</svg>
