<svg width="65" height="65" viewBox="0 0 65 65" fill="none" xmlns="http://www.w3.org/2000/svg">
<path d="M49.0814 45.0099L60.5027 56.4286L56.7294 60.2019L45.3107 48.7806C41.062 52.1865 35.7774 54.039 30.332 54.0312C17.084 54.0312 6.33203 43.2793 6.33203 30.0312C6.33203 16.7833 17.084 6.03125 30.332 6.03125C43.58 6.03125 54.332 16.7833 54.332 30.0312C54.3398 35.4766 52.4873 40.7612 49.0814 45.0099ZM43.732 43.0312C47.1163 39.5509 49.0063 34.8857 48.9987 30.0312C48.9987 19.7166 40.644 11.3646 30.332 11.3646C20.0174 11.3646 11.6654 19.7166 11.6654 30.0312C11.6654 40.3433 20.0174 48.6979 30.332 48.6979C35.1865 48.7056 39.8517 46.8156 43.332 43.4313L43.732 43.0312Z" fill="#012239"/>
</svg>
