<svg width="67" height="70" viewBox="0 0 67 70" fill="none" xmlns="http://www.w3.org/2000/svg">
<path d="M26.0904 0.744137C30.8106 -0.245682 35.6846 -0.248065 40.4058 0.737138C40.7203 2.81319 41.4986 4.79167 42.683 6.52551C43.8674 8.25935 45.4273 9.70397 47.2468 10.752C49.0649 11.8036 51.0966 12.4318 53.191 12.59C55.2853 12.7481 57.3883 12.432 59.3437 11.6653C62.557 15.2627 64.991 19.4862 66.4926 24.0701C64.8527 25.3808 63.5292 27.0443 62.6205 28.9368C61.7118 30.8294 61.2412 32.9023 61.2438 35.0017C61.2438 39.4248 63.2943 43.3684 66.4996 45.9334C64.9891 50.5135 62.5521 54.7336 59.3402 58.3312C57.3853 57.565 55.2829 57.2493 53.1892 57.4074C51.0956 57.5655 49.0644 58.1934 47.2468 59.2445C45.4288 60.2922 43.8701 61.7359 42.6864 63.4684C41.5027 65.201 40.7244 67.1779 40.4093 69.2523C35.6895 70.2445 30.8155 70.2492 26.0939 69.2663C25.7808 67.1884 25.0032 65.2079 23.8187 63.4721C22.6343 61.7363 21.0736 60.2901 19.2528 59.241C17.4345 58.1899 15.4026 57.5623 13.3083 57.4048C11.2139 57.2473 9.11104 57.5639 7.15596 58.3312C3.94224 54.7327 1.50819 50.508 0.00699882 45.9229C1.64602 44.6129 2.96896 42.9506 3.87763 41.0593C4.78631 39.1681 5.25737 37.0965 5.25587 34.9982C5.25758 32.8983 4.78594 30.8249 3.876 28.9324C2.96606 27.0398 1.64123 25.3766 0 24.0666C1.51051 19.4865 3.94756 15.2664 7.15945 11.6688C9.11432 12.435 11.2167 12.7507 13.3104 12.5926C15.4041 12.4345 17.4352 11.8066 19.2528 10.7555C21.0709 9.70779 22.6296 8.2641 23.8133 6.53156C24.997 4.79902 25.7753 2.82213 26.0904 0.747635V0.744137ZM33.2498 45.4995C36.034 45.4995 38.7041 44.3935 40.6728 42.4248C42.6415 40.4561 43.7476 37.7859 43.7476 35.0017C43.7476 32.2176 42.6415 29.5474 40.6728 27.5787C38.7041 25.61 36.034 24.504 33.2498 24.504C30.4656 24.504 27.7955 25.61 25.8268 27.5787C23.8581 29.5474 22.7521 32.2176 22.7521 35.0017C22.7521 37.7859 23.8581 40.4561 25.8268 42.4248C27.7955 44.3935 30.4656 45.4995 33.2498 45.4995Z" fill="white"/>
</svg>
