<svg width="81" height="82" viewBox="0 0 81 82" fill="none" xmlns="http://www.w3.org/2000/svg">
<path d="M40.5 0C62.8682 0 81 18.3557 81 41C81 63.6443 62.8682 82 40.5 82C18.1319 82 0 63.6443 0 41C0 18.3557 18.1319 0 40.5 0ZM24.3 45.1L8.3511 45.1041C9.25341 52.3292 12.5041 59.0451 17.5912 64.1943C22.6784 69.3435 29.3129 72.6334 36.45 73.5458V57.4C33.2276 57.4 30.1372 56.1041 27.8587 53.7974C25.5801 51.4907 24.3 48.3622 24.3 45.1ZM72.6489 45.1041L56.7 45.1C56.7 48.3622 55.4199 51.4907 53.1413 53.7974C50.8628 56.1041 47.7724 57.4 44.55 57.4L44.5541 73.5458C51.6904 72.6325 58.324 69.3423 63.4104 64.1932C68.4967 59.0441 71.7468 52.3286 72.6489 45.1041ZM40.5 8.2C32.6081 8.20014 24.9876 11.1159 19.0684 16.4C13.1493 21.6842 9.33845 28.9735 8.3511 36.9H24.3C24.3 35.8126 24.7267 34.7698 25.4862 34.0009C26.2457 33.232 27.2759 32.8 28.35 32.8H52.65C53.7241 32.8 54.7543 33.232 55.5138 34.0009C56.2733 34.7698 56.7 35.8126 56.7 36.9H72.6489C71.6616 28.9735 67.8507 21.6842 61.9316 16.4C56.0124 11.1159 48.3919 8.20014 40.5 8.2Z" fill="white"/>
</svg>
