<svg width="228" height="228" viewBox="0 0 228 228" fill="none" xmlns="http://www.w3.org/2000/svg">
<path d="M57 71.25C57 67.317 53.808 64.125 49.875 64.125H7.125C3.192 64.125 0 67.317 0 71.25C0 75.183 3.192 78.375 7.125 78.375H49.875C53.808 78.375 57 75.183 57 71.25Z" fill="#046E82"/>
<path d="M49.875 92.625H21.375C17.442 92.625 14.25 95.817 14.25 99.75C14.25 103.683 17.442 106.875 21.375 106.875H49.875C53.808 106.875 57 103.683 57 99.75C57 95.817 53.808 92.625 49.875 92.625Z" fill="#046E82"/>
<path d="M49.875 121.125H35.625C31.692 121.125 28.5 124.317 28.5 128.25C28.5 132.183 31.692 135.375 35.625 135.375H49.875C53.808 135.375 57 132.183 57 128.25C57 124.317 53.808 121.125 49.875 121.125Z" fill="#046E82"/>
<path d="M226.988 117.463L205.613 81.8378C204.331 79.686 202.008 78.375 199.5 78.375H149.625C145.692 78.375 142.5 81.567 142.5 85.5V156.75C142.5 160.683 145.692 163.875 149.625 163.875H220.875C224.808 163.875 228 160.683 228 156.75V121.125C228 119.828 227.658 118.56 226.988 117.463Z" fill="#F41111"/>
<path d="M171 92.625H195.467L212.567 121.125H171V92.625Z" fill="#FAFAFA"/>
<path d="M149.625 49.875H49.875C45.942 49.875 42.75 53.067 42.75 57V156.75C42.75 160.683 45.942 163.875 49.875 163.875H156.75V57C156.75 53.067 153.558 49.875 149.625 49.875Z" fill="#046E82"/>
<path d="M192.375 171C200.245 171 206.625 164.62 206.625 156.75C206.625 148.88 200.245 142.5 192.375 142.5C184.505 142.5 178.125 148.88 178.125 156.75C178.125 164.62 184.505 171 192.375 171Z" fill="#FAFAFA"/>
<path d="M192.375 178.125C180.59 178.125 171 168.535 171 156.75C171 144.965 180.59 135.375 192.375 135.375C204.16 135.375 213.75 144.965 213.75 156.75C213.75 168.535 204.16 178.125 192.375 178.125ZM192.375 149.625C188.456 149.625 185.25 152.831 185.25 156.75C185.25 160.669 188.456 163.875 192.375 163.875C196.294 163.875 199.5 160.669 199.5 156.75C199.5 152.831 196.294 149.625 192.375 149.625Z" fill="#1D2125"/>
<path d="M156.75 163.875H49.875C45.942 163.875 42.75 160.683 42.75 156.75V135.375H156.75V163.875Z" fill="#F41111"/>
<path d="M92.625 171C100.495 171 106.875 164.62 106.875 156.75C106.875 148.88 100.495 142.5 92.625 142.5C84.7549 142.5 78.375 148.88 78.375 156.75C78.375 164.62 84.7549 171 92.625 171Z" fill="#FAFAFA"/>
<path d="M92.625 178.125C80.8403 178.125 71.25 168.535 71.25 156.75C71.25 144.965 80.8403 135.375 92.625 135.375C104.41 135.375 114 144.965 114 156.75C114 168.535 104.41 178.125 92.625 178.125ZM92.625 149.625C88.692 149.625 85.5 152.831 85.5 156.75C85.5 160.669 88.692 163.875 92.625 163.875C96.558 163.875 99.75 160.669 99.75 156.75C99.75 152.831 96.558 149.625 92.625 149.625Z" fill="#1D2125"/>
</svg>
