<svg width="55" height="54" viewBox="0 0 55 54" fill="none" xmlns="http://www.w3.org/2000/svg">
<path d="M41.7525 44.76C37.3555 47.5489 32.2543 49.0258 27.0475 49.0175C13.5675 49.0175 2.3525 39.3175 0 26.5175C1.07507 20.6943 4.00407 15.3747 8.35 11.3525L0.5275 3.5375L4.065 0L53.5625 49.5L50.025 53.035L41.75 44.76H41.7525ZM11.885 14.8925C8.48751 17.9815 6.12079 22.0395 5.105 26.5175C5.88573 29.9336 7.45316 33.1204 9.68251 35.824C11.9119 38.5276 14.7416 40.6735 17.9464 42.0908C21.1512 43.5081 24.6426 44.1576 28.1427 43.9878C31.6428 43.818 35.055 42.8334 38.1075 41.1125L33.0375 36.0425C30.8792 37.402 28.323 37.9878 25.7881 37.7036C23.2532 37.4194 20.8901 36.2823 19.0864 34.4786C17.2827 32.6749 16.1456 30.3118 15.8614 27.7769C15.5772 25.242 16.163 22.6858 17.5225 20.5275L11.885 14.8925ZM29.3325 32.3375L21.2275 24.2325C20.7827 25.3648 20.678 26.6024 20.9263 27.7934C21.1746 28.9843 21.765 30.077 22.6253 30.9372C23.4855 31.7975 24.5782 32.3879 25.7691 32.6362C26.9601 32.8845 28.1977 32.7798 29.33 32.335L29.3325 32.3375ZM49.065 37.9975L45.4875 34.4225C47.1587 32.0408 48.3485 29.3555 48.99 26.5175C48.3106 23.5418 47.0332 20.7354 45.2354 18.2687C43.4376 15.8021 41.157 13.7268 38.5322 12.169C35.9074 10.6112 32.9932 9.60342 29.9668 9.20691C26.9404 8.8104 23.865 9.03345 20.9275 9.8625L16.9825 5.9175C20.1 4.6925 23.4975 4.0175 27.0475 4.0175C40.5275 4.0175 51.7425 13.7175 54.095 26.5175C53.329 30.6817 51.6071 34.6115 49.065 37.9975ZM26.355 15.2875C27.9463 15.1892 29.5403 15.4302 31.0314 15.9945C32.5224 16.5589 33.8765 17.4338 35.0039 18.5611C36.1312 19.6885 37.0061 21.0426 37.5705 22.5336C38.1348 24.0247 38.3758 25.6187 38.2775 27.21L26.3525 15.2875H26.355Z" fill="#012239"/>
</svg>
