<svg width="71" height="70" viewBox="0 0 71 70" fill="none" xmlns="http://www.w3.org/2000/svg">
<g clip-path="url(#clip0_134_10121)">
<path opacity="0.4" d="M58.8327 64.166H12.166V58.3327C12.166 54.4649 13.7025 50.7556 16.4374 48.0207C19.1723 45.2858 22.8816 43.7494 26.7493 43.7494H44.2493C48.1171 43.7494 51.8264 45.2858 54.5613 48.0207C57.2962 50.7556 58.8327 54.4649 58.8327 58.3327V64.166ZM35.4993 37.916C33.2012 37.916 30.9256 37.4634 28.8024 36.5839C26.6792 35.7044 24.75 34.4154 23.125 32.7904C21.5 31.1654 20.2109 29.2362 19.3315 27.113C18.452 24.9898 17.9993 22.7141 17.9993 20.416C17.9993 18.1179 18.452 15.8423 19.3315 13.7191C20.2109 11.5959 21.5 9.66667 23.125 8.04165C24.75 6.41662 26.6792 5.12758 28.8024 4.24812C30.9256 3.36867 33.2012 2.91602 35.4993 2.91602C40.1406 2.91602 44.5918 4.75976 47.8737 8.04165C51.1556 11.3235 52.9993 15.7747 52.9993 20.416C52.9993 25.0573 51.1556 29.5085 47.8737 32.7904C44.5918 36.0723 40.1406 37.916 35.4993 37.916Z" fill="#1D2125"/>
</g>
<defs>
<clipPath id="clip0_134_10121">
<rect width="70" height="70" fill="white" transform="translate(0.5)"/>
</clipPath>
</defs>
</svg>
