<svg width="55" height="45" viewBox="0 0 55 45" fill="none" xmlns="http://www.w3.org/2000/svg">
<path d="M27.0475 0C40.5275 0 51.7425 9.7 54.095 22.5C51.745 35.3 40.5275 45 27.0475 45C13.5675 45 2.3525 35.3 0 22.5C2.35 9.7 13.5675 0 27.0475 0ZM27.0475 40C32.1462 39.9989 37.0935 38.2671 41.0796 35.0879C45.0658 31.9088 47.8548 27.4707 48.99 22.5C47.8506 17.5333 45.0598 13.1 41.0741 9.92507C37.0883 6.75012 32.1433 5.02132 27.0475 5.02132C21.9517 5.02132 17.0067 6.75012 13.0209 9.92507C9.03516 13.1 6.24442 17.5333 5.105 22.5C6.24024 27.4707 9.02919 31.9088 13.0154 35.0879C17.0015 38.2671 21.9488 39.9989 27.0475 40ZM27.0475 33.75C24.0638 33.75 21.2023 32.5647 19.0926 30.455C16.9828 28.3452 15.7975 25.4837 15.7975 22.5C15.7975 19.5163 16.9828 16.6548 19.0926 14.545C21.2023 12.4353 24.0638 11.25 27.0475 11.25C30.0312 11.25 32.8927 12.4353 35.0024 14.545C37.1122 16.6548 38.2975 19.5163 38.2975 22.5C38.2975 25.4837 37.1122 28.3452 35.0024 30.455C32.8927 32.5647 30.0312 33.75 27.0475 33.75ZM27.0475 28.75C28.7051 28.75 30.2948 28.0915 31.4669 26.9194C32.639 25.7473 33.2975 24.1576 33.2975 22.5C33.2975 20.8424 32.639 19.2527 31.4669 18.0806C30.2948 16.9085 28.7051 16.25 27.0475 16.25C25.3899 16.25 23.8002 16.9085 22.6281 18.0806C21.456 19.2527 20.7975 20.8424 20.7975 22.5C20.7975 24.1576 21.456 25.7473 22.6281 26.9194C23.8002 28.0915 25.3899 28.75 27.0475 28.75Z" fill="#1D2125"/>
</svg>
